<svg width="32768" height="3159" viewBox="0 0 32768 3159" fill="none" xmlns="http://www.w3.org/2000/svg">
<rect width="750" height="750" transform="translate(32130.7) scale(0.849793)" fill="white"/>
<path fill-rule="evenodd" clip-rule="evenodd" d="M32337.5 550.194C32336.7 550.673 32335.7 550.515 32335.1 549.82C32331.5 546.631 32327.4 544.056 32323.6 540.988C32321.6 539.325 32319.5 537.828 32317.3 536.512C32315.6 535.565 32314.4 534.088 32312.8 533.01L32312.4 532.726C32310.4 531.552 32308.9 529.858 32307 528.54C32305.5 527.428 32304.3 525.779 32302.8 524.588C32300.5 522.828 32298.4 520.956 32296.3 518.978C32294.8 517.871 32293.5 516.503 32292.6 514.942C32292.3 514.496 32291.9 514.4 32291.6 514.125C32290.3 512.981 32289.1 511.759 32287.9 510.464C32285.6 507.657 32282.9 505.079 32280.6 502.24C32278.9 500.178 32277.1 498.228 32275.4 496.222C32273.7 494.29 32272.1 492.326 32270.5 490.328C32266.7 485.666 32263.2 480.788 32260 475.719C32257.6 471.721 32255.4 467.587 32253.4 463.337C32251.7 459.959 32250.1 456.468 32248.9 452.888C32247.9 449.997 32246.6 447.223 32245.9 444.302C32245.3 441.546 32244.5 438.805 32243.9 436.085C32242.3 429.783 32241 423.439 32239.9 417.05C32239.3 413.29 32238.7 409.492 32238 405.755C32237.2 401.369 32236.9 396.927 32236.1 392.542C32235.7 389.974 32235.5 387.255 32235.2 384.619C32235 382.068 32235 379.491 32234.6 376.958C32234.2 374.417 32234 371.86 32233.9 369.295C32233.7 366.914 32232.9 364.412 32233.7 361.97C32232.5 360.261 32233.3 358.281 32233.1 356.448C32232.9 354.616 32232.9 352.751 32232.6 350.968C32232.3 349.132 32232 347.251 32231.7 345.426C32231.2 341.719 32230.3 338.085 32229.8 334.402C32229.5 332.154 32228.5 330.168 32228 328.01C32227 323.882 32225.6 319.864 32223.8 316.015C32223 314.484 32222.5 312.847 32222.3 311.161C32222.1 309.877 32220.9 309.331 32220.5 308.161C32220 306.267 32219.1 304.471 32218.4 302.623C32218.2 301.995 32217.8 301.485 32217.2 301.287L32217.7 299.664C32217.4 299.002 32217.1 299.788 32216.8 299.578C32216.4 298.846 32215.8 298.151 32215.9 297.154C32216 296.216 32215 295.939 32214.7 295.066C32214.2 293.17 32212.1 291.88 32212.6 289.585C32211.1 288.282 32210.7 286.394 32209.7 284.807C32209.2 284.066 32208.9 283.167 32209 282.272L32209 282.065C32209.2 281.189 32207.5 281.088 32208.1 279.971C32205.9 277.567 32205.8 274.268 32204.9 271.392C32203.4 266.776 32201.6 262.245 32201 257.352C32200.6 254.905 32199.6 252.459 32199.2 249.971C32198.3 244.38 32197 238.84 32196.8 233.143C32196.7 230.789 32196.1 228.454 32196.1 226.099L32196 223.376C32195.9 219.291 32195.8 215.203 32196 211.118C32195.9 210.171 32196.1 209.215 32196.5 208.358C32197.1 207.408 32196.1 206.549 32196.2 205.503C32196.3 204.261 32197 203.191 32196.9 201.832C32196.8 201.084 32197.2 199.97 32197.1 199.102C32196.9 196.28 32198.3 193.661 32198 190.846C32198 189.79 32198.3 188.759 32198.8 187.831C32199.9 184.631 32199.5 181.091 32201.1 178.047C32201.8 176.542 32202.2 174.886 32202.2 173.211L32202.2 172.563C32202.2 172.083 32202.2 171.622 32202.5 171.349C32203.7 170.213 32203.7 168.607 32204.1 167.236C32204.7 165.768 32204.7 164.135 32205.4 162.674C32206.3 161.274 32206.9 159.727 32207.3 158.106C32207.5 155.298 32208.9 152.978 32209.9 150.51C32210.4 149.276 32210.5 147.709 32212.1 147.002C32212.9 146.643 32211.3 145.402 32212.5 144.872L32212.6 144.818C32213.4 144.525 32213.5 143.832 32213.5 142.972C32213.4 142.185 32214.8 141.896 32214.6 141.06C32214.3 140.224 32214.4 139.073 32214.8 139.009C32216 138.842 32215.1 137.451 32216 137.387C32216.1 137.354 32216.2 137.276 32216.2 137.178C32217.1 134.342 32219.3 132.297 32220.3 129.489C32221 127.826 32221.9 126.3 32223.1 124.993C32224.2 123.709 32225.1 122.339 32225.9 120.9C32227.4 118.498 32229.6 116.652 32231 114.256C32231.4 113.608 32233.2 114.158 32232.5 112.569C32233.6 112.383 32233.5 111.238 32234 110.632C32234.6 110.2 32235.2 109.856 32235.9 109.613C32236.5 108.151 32237.5 106.865 32238.8 105.858C32241.1 103.522 32243.5 101.332 32246 99.3014L32248.2 97.6355C32251 95.4152 32253.9 93.2657 32257.3 91.9962C32258.2 91.67 32258 90.7199 32258.7 90.3557C32263 88.2123 32267.1 85.6375 32271.8 84.2683C32273.7 83.6937 32275.6 82.3811 32277.6 81.7775C32281.6 80.5646 32285.5 78.8163 32289.8 78.1801C32292.3 77.8048 32294.9 77.012 32297.4 76.5629C32302.8 75.4798 32308.2 75.0428 32313.7 75.2613L32317 75.4753C32320 75.6662 32322.9 75.8833 32325.9 76.3212C32327.3 76.5288 32328.6 77.2062 32329.9 77.2714C32331.1 77.3333 32332.4 77.6572 32333.5 78.2229C32334.4 78.6556 32335.3 77.98 32336.3 78.5993C32337 79.2285 32337.9 79.4733 32338.9 79.2637L32339 79.2157C32339.6 79.0204 32340.4 79.7074 32341.1 80.0041C32342.2 80.344 32343.2 80.792 32344.2 81.3409C32344.9 81.847 32346.1 80.8474 32346.4 82.1965C32347.6 81.5951 32348.4 82.4306 32349.3 82.7938L32349.5 82.8402C32350.4 83.1564 32351.3 83.6009 32352.2 83.9888L32355.3 85.2818C32356.1 85.7935 32357 86.1665 32358 86.3869C32359.8 86.4922 32361.2 87.5985 32363 87.9346C32364.9 88.4558 32366.7 89.2124 32368.5 90.1871C32370 90.932 32371.8 90.5686 32373.4 91.4813C32374.8 92.4779 32376.5 93.1593 32378.2 93.4823C32380 93.6587 32381.5 94.8051 32383.1 94.9027L32383.4 94.9082C32385.5 94.8659 32386.8 96.3226 32388.6 96.5184C32392.5 96.9447 32396.1 98.5899 32399.9 99.0898C32404.7 99.7203 32409.4 100.943 32414.2 101.343C32417.4 101.603 32420.6 101.764 32423.7 102.025C32426.9 102.164 32430.1 102.033 32433.2 101.635C32437.1 101.244 32441 100.536 32444.9 99.5174C32448.7 98.5365 32452.4 96.9816 32456.2 95.9445C32457.9 95.471 32459.6 94.6878 32461.3 94.2642C32463.2 93.8082 32465 92.6073 32466.9 92.1442C32471.7 90.9847 32476 88.5414 32481 87.9152C32486.7 85.4362 32492.9 85.0034 32498.8 83.3397C32501.5 82.5634 32504.4 82.5067 32507.3 82.1522L32507.9 82.0713C32513 81.3636 32518.1 81.1707 32523.2 80.9295C32527.9 80.7462 32532.6 80.8719 32537.3 81.3057C32540.7 81.5898 32544 82.0372 32547.4 82.258C32548.7 82.3486 32549.9 83.5261 32551.3 82.9451C32554.1 84.2673 32557.4 83.8377 32560.2 85.2632C32562.2 85.0286 32563.9 86.0705 32565.7 86.9171C32567 87.5659 32568.4 86.9487 32569.7 87.7923C32570.8 88.6729 32572.2 89.2361 32573.6 89.4248C32576 89.4788 32577.9 90.7073 32580 91.5442C32584.8 93.4894 32589.6 95.5178 32594.3 97.6292C32595.9 98.3221 32597.7 98.4868 32598.9 99.9754C32599.9 101.282 32602 100.937 32602.9 102.437C32603.3 102.983 32604 102.173 32604.6 102.644C32605.8 103.562 32607.5 103.397 32608.5 104.856C32609.2 105.936 32611 105.608 32611.8 106.896L32611.9 107.082C32612.3 107.993 32614.2 106.358 32614.3 108.239C32616.1 108.703 32617.5 109.971 32619 110.945C32620.2 111.75 32621.9 111.711 32622.9 113.106C32623.8 114.295 32625.9 113.902 32626.5 115.567C32628.7 115.974 32630 117.913 32632.1 118.717C32633.6 119.418 32635 120.319 32636.3 121.396C32638.3 122.96 32640.4 124.463 32642.6 125.911C32643.3 126.444 32644.1 127.019 32644.8 127.633C32645.1 127.967 32645.2 128.555 32645.8 128.804C32649.6 130.384 32652.5 133.287 32655.5 135.911C32657.3 137.252 32658.9 138.731 32660.4 140.334L32660.9 140.873C32661.4 141.404 32662.4 141.808 32662.7 142.5C32663.7 144.427 32665.4 145.592 32666.9 146.917L32667.2 147.139C32668.1 147.873 32668.8 148.729 32669.4 149.678C32669.5 149.859 32669.5 150.207 32669.7 150.271C32672.4 151.467 32673.7 154.099 32675.5 156.113C32677.3 158.06 32678.8 160.343 32680.6 162.237C32684.4 166.057 32722.1 225.91 32725.8 235.75L32726.9 238.567C32728 241.387 32729 244.223 32729.9 247.089L32730.7 249.529C32731.5 251.973 32732.2 254.43 32732.8 256.903L32733.7 260.204C32735.3 266.809 32736.9 273.434 32738.1 280.157C32739.1 286.155 32739.8 292.185 32740.4 298.222C32740.9 302.098 32741.1 305.96 32741.2 309.851C32741.4 316.069 32741.5 322.287 32741.4 328.506C32741.3 334.36 32739.9 340.079 32740.1 345.922C32738.7 349.24 32739.6 353.005 32738.1 356.3C32738.4 358.123 32737.5 359.789 32737.2 361.459C32736.8 363.182 32736.9 365.069 32735.9 366.705C32735.4 367.448 32736 368.538 32735.4 369.443C32734.8 370.178 32734.6 371.133 32734.8 372.048C32733.5 372.382 32734.8 373.463 32734.2 374.148C32733.5 374.893 32733.1 375.841 32733 376.842C32733 379.106 32731.3 380.917 32731.2 382.947C32731.1 385.023 32729.8 386.571 32729.4 388.396L32729.4 388.742C32729.1 391.167 32727.1 392.669 32726.7 394.925C32726.6 395.123 32726.1 395.223 32725.8 395.375C32725.8 395.899 32726.4 395.883 32726.7 396.349C32726 396.791 32725.3 397.332 32724.7 397.957C32724.2 398.865 32723.8 399.824 32723.5 400.819L32724.7 403.198C32723.9 404.29 32723.9 405.416 32723 406.215C32722.6 406.564 32722.5 407.852 32722.3 408.711C32722.1 409.838 32720.5 410.258 32720.7 411.218C32720.8 412.299 32720.5 413.379 32719.9 414.279C32716.2 423.129 32712.4 431.963 32708.6 440.781C32708.2 441.728 32708.2 443.003 32706.9 443.367C32708 444.969 32705.8 445.081 32705.6 446.16C32705.3 447.145 32704.7 448.041 32704 448.784C32702.9 450.223 32702.4 452.175 32701.6 453.877C32701.3 455.117 32700.6 456.234 32699.7 457.1C32698.7 457.795 32698.6 459.272 32697.7 460.339C32696.6 461.607 32695.7 463.018 32695 464.532C32694.6 465.654 32694 466.659 32693.1 467.431C32692.3 468.028 32692.6 469.592 32691.3 469.907C32690.5 471.907 32689 473.346 32687.8 474.992L32687.6 475.303C32684.5 479.558 32681.2 483.625 32677.7 487.483C32674.7 490.735 32671.8 494.037 32668.8 497.26C32667.9 498.299 32666.9 499.326 32665.8 500.292C32662.2 503.877 32658.4 507.259 32654.4 510.421C32650.7 513.128 32647.2 516.005 32643.5 518.56C32641.5 519.92 32639.7 521.712 32637.7 523.184C32633.1 526.658 32628.4 530.001 32623.5 533.102C32619.3 535.998 32614.8 538.483 32610.2 540.52C32608.9 541.011 32607.8 541.86 32606.6 542.432C32605.1 542.932 32603.7 543.534 32602.3 544.235C32600.7 545.315 32598.8 545.855 32597.2 546.835C32595.9 547.595 32594.2 546.738 32593.1 548.317C32592.3 549.466 32590.2 548.627 32589.2 549.959C32587.2 549.674 32586 551.444 32584.1 551.76L32583.8 551.793C32581.8 551.978 32579.9 553.233 32578 554.018C32576.1 554.918 32574.1 555.689 32572.1 556.328C32568.4 557.273 32565 559.114 32561.3 560.124C32557.9 561.085 32554.6 562.811 32550.9 563.045C32550.1 563.1 32550.1 563.857 32549.5 564.068C32548.8 564.29 32548.2 563.959 32547.6 564.241C32545.2 565.296 32542.6 566.152 32540 566.801C32536.4 567.843 32532.7 568.784 32529 569.852C32523.4 571.419 32517.6 572.686 32511.8 573.65C32508.1 574.336 32504.3 574.889 32500.5 575.482L32495.2 576.313C32492.6 576.726 32490 577.129 32487.3 577.485C32484 577.935 32480.6 578.16 32477.2 578.572C32474.6 578.893 32471.9 579.327 32469.3 579.76C32465.6 580.359 32461.9 580.829 32458.3 581.403C32453.1 582.189 32447.9 582.685 32442.6 582.888C32440 583.069 32437.3 583.08 32434.7 582.923C32433.2 582.795 32431.7 582.759 32430.2 582.817L32429.5 582.853C32426.1 583.085 32422.8 582.387 32419.4 582.1C32418.4 582.008 32417.4 581.695 32416.5 581.508L32416 581.436C32415.2 581.31 32414.4 581.126 32413.6 580.951L32413 580.823C32410.1 580.239 32407.4 579.154 32404.4 578.947L32403.9 578.919C32403.6 578.918 32403.4 578.867 32403.2 578.772C32400.4 577.144 32397 577.021 32394 575.652L32393.5 575.396C32390.7 573.957 32387.4 573.975 32384.7 572.327C32382.6 572.668 32381 571.095 32379.2 570.758C32374.4 569.888 32370.2 567.508 32365.7 565.692L32365.2 565.459C32360.5 563.632 32356 561.59 32351.4 559.67C32348.3 558.131 32345.3 556.339 32342.5 554.311C32341.9 553.746 32341.2 553.26 32340.5 552.865C32339.2 552.431 32338.1 551.461 32337.5 550.194Z" fill="#64FCD9"/>
<path fill-rule="evenodd" clip-rule="evenodd" d="M32404.4 291.636C32401.1 304.911 32393.1 315.262 32380.6 323.638C32383.8 314.381 32387.9 303.55 32391.1 294.294C32388 300.609 32382.5 306.803 32376.3 310.169C32380.2 296.237 32388.4 285.16 32388.4 267.502C32388.4 261.152 32381.5 256.248 32381.7 253.665C32382 251.053 32383.4 248.716 32384.5 246.322C32390.5 232.928 32406.6 297.129 32404.4 291.636Z" fill="white"/>
<path fill-rule="evenodd" clip-rule="evenodd" d="M32651.2 175.632C32651.1 175.617 32650.9 175.599 32650.8 175.579C32650.9 175.371 32651.1 175.385 32651.2 175.632ZM32553.5 375.059C32552.9 375.586 32552.3 376.111 32551.7 376.633C32551.1 376.633 32549.1 373.221 32546.3 368.477C32543.8 364.107 32540.5 358.608 32537.2 353.604C32534.3 349.232 32531.1 345.291 32528.8 342.465C32526.7 339.896 32525.3 338.248 32525.6 338.035C32532.1 333.391 32538.8 329.079 32545.5 324.769C32556.4 317.807 32567.2 310.853 32576.9 302.526C32602.7 280.287 32620.6 252.351 32631.4 228.38C32640.4 208.16 32645.3 192.179 32648.1 183.265C32649.4 178.883 32650.2 176.209 32650.8 175.579C32645.1 174.804 32640.1 170.463 32638.6 164.971C32637 159.336 32639.2 152.85 32643.9 149.342C32649.2 145.421 32650.9 138.369 32651.4 131.853C32651.5 130.509 32651.6 129.154 32651.6 127.797C32651.9 122.569 32652.2 117.311 32654.4 112.59C32655.2 110.743 32656.7 108.82 32658.7 108.774C32661.9 108.701 32663.1 112.985 32663.2 116.223L32663.8 130.737C32665.2 128.305 32669.2 128.909 32670.8 131.165C32672.5 133.421 32672.4 136.445 32672.3 139.232C32673.1 133.045 32675.6 127.078 32679.4 122.164C32680.6 120.622 32682.4 119.037 32684.3 119.628C32686.3 120.252 32686.7 122.781 32686.8 124.848C32687.4 142.781 32682 160.861 32671.8 175.567C32669.8 178.405 32668.7 181.692 32668 185.104C32668.2 187.496 32668.4 190.075 32668.1 192.226C32664.8 216.772 32659.3 241.02 32651.6 264.588C32647.1 278.61 32641.7 292.63 32632.6 304.226C32627.8 310.341 32622.1 315.656 32616.3 320.913C32598.8 337.026 32577.5 355.265 32558.6 371.409C32556.1 373.596 32553.6 375.744 32551.1 377.844C32551 377.844 32551.8 376.874 32553.5 375.059Z" fill="white"/>
<path d="M32362.9 456.068C32364.4 460.291 32368.1 465.686 32368.1 465.686C32368.1 465.686 32342.1 502.384 32332.2 523.35C32323 542.834 32313.8 587.951 32285.3 560.863C32298.8 522.476 32312.5 483.884 32332.2 448.269C32341.2 432.071 32349.1 426.322 32349.1 426.322C32349.1 426.322 32357.7 441.296 32362.9 456.068Z" fill="white"/>
<path fill-rule="evenodd" clip-rule="evenodd" d="M32391.4 238.344C32389.4 239.991 32391.1 243.211 32393.2 244.616C32395.3 246.021 32398 247.085 32398.8 249.511C32395.5 249.707 32392.6 246.991 32389.5 247.35C32385.9 247.747 32383.8 251.961 32384.5 255.45C32385.2 258.938 32387.8 261.711 32390.5 264.031C32394.7 267.647 32399.4 270.685 32404.4 273.033C32406.3 273.893 32408.3 276.491 32406.5 277.4C32404.8 276.435 32403.1 275.469 32401.4 274.504C32404.2 283.269 32407.1 292.212 32412.7 299.595C32418.2 306.977 32426.8 312.649 32436 312.118C32437.8 312.016 32440.4 312.397 32440.2 314.164C32439 314.441 32437.8 314.718 32436.6 314.994C32440.3 318.129 32445.6 318.895 32450.4 318.088C32455.1 317.281 32459.5 315.08 32463.8 312.815C32472.4 308.272 32481 303.206 32487.2 295.771C32491.5 290.668 32494.5 284.629 32497 278.454C32504.8 258.913 32507.7 237.371 32505.1 216.466C32505 215.416 32504.3 214.025 32503.3 214.351C32478.9 222.258 32451.4 220.081 32428.5 208.436C32423.6 205.916 32418.7 202.795 32415.8 198.037C32426.4 204.555 32437.9 209.523 32449.9 212.734C32461.7 215.881 32474.1 217.337 32486.1 215.525C32498.2 213.713 32509.9 208.456 32518.3 199.626C32529.8 187.589 32534 169.947 32532.3 153.436C32530.7 136.924 32523.8 121.357 32515.5 106.988C32513.1 116.797 32504.6 124.289 32495.2 127.866C32485.7 131.443 32475.4 131.658 32465.3 131.164C32455.2 130.67 32445 129.513 32435 130.512C32428.8 131.13 32422.2 132.809 32418 137.453C32411.6 144.524 32413 155.405 32414.8 164.749C32412 163.271 32410.5 159.754 32411.3 156.694C32400.1 158.755 32392 169.161 32389.1 180.157C32386.2 191.153 32387.6 202.75 32389 214.024C32389.6 218.81 32390.2 223.595 32390.8 228.38C32391.2 231.302 32391.7 234.434 32393.7 236.583C32400 243.346 32404.5 251.872 32406.4 260.943C32413.2 249.268 32418 236.383 32420.3 223.07C32420.9 220.072 32421.3 216.937 32423.1 214.427C32424.8 211.916 32428.2 210.277 32431 211.639C32420.1 228.214 32419.6 250.683 32406.2 265.261C32404 259.724 32401.8 254.188 32399.6 248.651C32397.9 244.427 32395.7 239.715 32391.4 238.344Z" fill="white"/>
<path fill-rule="evenodd" clip-rule="evenodd" d="M32551.5 402.899C32542.8 409.059 32533.9 414.852 32524.8 420.258C32522.8 434.203 32518.2 461.005 32514.6 483.594C32513 493.868 32513 502.609 32511.6 509.793C32508.7 524.404 32496.8 532.172 32482.5 531.464C32398.6 527.324 32397.4 571.775 32394.2 543.062C32391 514.348 32389.5 485.438 32389.8 456.547C32383.3 461.316 32376.9 466.086 32370.4 470.856C32368.3 467.731 32350.1 438.374 32351 427.675C32352 416.011 32365 399.075 32379.8 385.741C32389 377.435 32399.7 371.384 32406.2 366.251C32408.8 364.176 32422.4 351.883 32425.5 339.877C32428.8 327.313 32421.8 315.027 32427.9 313.382C32432.8 312.084 32435.9 315.935 32441.4 318.386C32445.6 320.271 32452.6 316.922 32454.2 319.586C32455.8 322.25 32453.7 332.776 32457.8 336.822C32465.4 344.321 32481.2 345.577 32482.5 345.441C32499.5 343.63 32517.4 335.86 32522.6 337.793C32540.3 344.436 32553.7 377.797 32556.6 389.243C32557.3 391.855 32557.8 394.674 32556.8 397.184C32555.9 399.656 32553.6 401.356 32551.5 402.899Z" fill="white"/>
<path fill-rule="evenodd" clip-rule="evenodd" d="M32530.8 343.596C32530.3 342.911 32529.7 342.308 32529.3 341.777C32526.9 339.208 32525.2 338.321 32525.6 338.035C32542.5 325.89 32561.3 316.008 32576.9 302.526C32602.7 280.287 32620.6 252.351 32631.4 228.38C32639.6 210.036 32627.9 252.121 32600.7 292.612C32578.2 325.913 32531.7 344.777 32530.8 343.596Z" fill="#E7EAEE"/>
<path fill-rule="evenodd" clip-rule="evenodd" d="M32551.5 402.899C32553.6 401.356 32555.9 399.656 32556.8 397.184C32557.8 394.674 32557.3 391.855 32556.6 389.243C32551.7 369.614 32540.7 351.532 32525.6 338.035C32588.4 306.902 32636 246.619 32651.5 178.357C32638 217.189 32619.7 255.051 32592.3 285.751C32564.9 316.45 32527.5 339.568 32486.5 343.914C32477.4 344.881 32467.2 344.593 32460.4 338.505C32453.6 332.417 32453.8 318.781 32462.5 315.93C32478.9 310.569 32492 297.302 32499.3 281.756C32506.7 266.209 32508.9 248.562 32507.9 231.377C32507.5 223.553 32507 214.253 32513.3 209.527C32529.1 197.57 32536.7 176.764 32535.8 156.956C32534.9 137.149 32526.4 118.313 32515.2 101.975C32511.4 113.561 32501.7 123.058 32490.1 126.628C32480.3 129.62 32470 128.562 32459.7 127.5C32454.7 126.982 32449.7 126.463 32444.7 126.413C32429.5 126.258 32411.4 133.739 32409.7 148.838C32409.2 153.781 32404.7 156.636 32400.3 159.455C32398.9 160.372 32397.4 161.285 32396.1 162.265C32384.4 171.171 32383.4 188.283 32385.2 202.866C32385.5 204.969 32385.8 207.09 32386.1 209.222C32387.8 221.87 32389.7 234.859 32384.5 246.322C32384.3 246.83 32384 247.336 32383.8 247.842C32382.9 249.72 32382 251.607 32381.7 253.665C32381.1 259.572 32385.8 263.528 32390.7 267.599C32393.3 269.76 32395.9 271.953 32397.8 274.487C32402.4 280.748 32402.3 289.544 32399.5 296.804C32396.7 304.063 32391.5 310.138 32386.4 316.062C32391.8 305.416 32394.6 293.453 32394.5 281.519L32380.1 305.67C32385.1 293.584 32388 280.588 32388.4 267.502L32376.8 309.297C32383 305.93 32388 300.609 32391.1 294.294L32381.5 322.063C32392.4 314.997 32400.6 304.021 32404.4 291.636C32406.6 297.129 32410.3 302.011 32415 305.599C32431.3 318.042 32430 346.989 32412.7 357.984C32378.3 379.828 32352 412.653 32332.2 448.268C32312.5 483.884 32298.8 522.476 32285.3 560.863C32304.8 515.704 32326 471.268 32348.9 427.675C32354.2 442.893 32361.4 457.438 32370.4 470.856L32389.8 456.547C32389.5 485.438 32391 514.348 32394.2 543.062C32398 543.466 32398.9 537.872 32398.3 534.083C32392.5 497.8 32391.7 460.743 32395.7 424.231C32391.9 426.677 32391.8 431.777 32391.7 436.55C32391.7 437.454 32391.7 438.346 32391.7 439.206C32391.2 451.038 32382.3 462.035 32370.9 465.11C32365 457.64 32359 450.014 32355.6 441.107C32352.2 432.2 32351.9 421.643 32357 413.597C32370.6 391.985 32390.3 374.214 32413.2 362.806C32423.4 372.699 32435.5 380.639 32448.6 386.069C32452.8 387.795 32457.6 389.259 32461.7 387.391C32464.6 386.101 32466.5 383.445 32468.2 380.826C32474.6 370.905 32479.3 359.865 32482 348.357C32494.3 346.611 32506.5 344.009 32518.4 340.574C32523.2 339.185 32527.9 343.104 32531.2 346.923C32541.3 358.769 32548.8 372.85 32552.9 387.863C32553.8 390.924 32554.5 394.287 32553.2 397.192C32552.2 399.527 32550 401.154 32547.9 402.63C32540.1 408.152 32531.9 413.041 32523.3 417.232C32524.2 407.911 32521.8 398.304 32516.7 390.482C32524.8 412.281 32520.5 435.404 32516.1 458.764C32512.8 476.609 32509.5 494.592 32511.6 512.231L32524.8 420.258C32533.9 414.852 32542.8 409.059 32551.5 402.899ZM32391.4 238.344C32395.7 239.715 32397.9 244.427 32399.6 248.651L32406.2 265.261C32413.7 257.129 32417.1 246.542 32420.6 235.893C32423.4 227.45 32426.2 218.968 32431 211.639C32428.2 210.276 32424.8 211.916 32423.1 214.427C32421.5 216.769 32420.9 219.655 32420.4 222.466C32420.4 222.668 32420.4 222.869 32420.3 223.07C32418 236.383 32413.2 249.268 32406.4 260.943C32404.5 251.872 32400 243.346 32393.7 236.583C32391.7 234.434 32391.2 231.302 32390.8 228.38L32389 214.024C32387.6 202.75 32386.2 191.153 32389.1 180.157C32392 169.16 32400.1 158.755 32411.3 156.694C32410.5 159.754 32412 163.271 32414.8 164.749C32413 155.405 32411.6 144.524 32418 137.453C32422.2 132.809 32428.8 131.13 32435 130.512C32442.7 129.748 32450.4 130.245 32458.1 130.742C32460.5 130.895 32462.9 131.048 32465.3 131.164C32475.4 131.658 32485.7 131.443 32495.2 127.866C32504.6 124.289 32513.1 116.797 32515.5 106.988C32523.8 121.357 32530.7 136.924 32532.3 153.436C32534 169.947 32529.8 187.589 32518.3 199.625C32509.9 208.456 32498.2 213.713 32486.1 215.525C32474.1 217.337 32461.7 215.881 32449.9 212.734C32437.9 209.523 32426.4 204.555 32415.8 198.037C32418.7 202.795 32423.6 205.916 32428.5 208.436C32451.4 220.081 32478.9 222.258 32503.3 214.351C32504.3 214.025 32505 215.416 32505.1 216.466C32507.7 237.371 32504.8 258.913 32497 278.454C32494.5 284.629 32491.5 290.668 32487.2 295.771C32481 303.206 32472.4 308.272 32463.8 312.815C32459.5 315.08 32455.1 317.281 32450.4 318.088C32445.6 318.895 32440.3 318.129 32436.6 314.994L32440.2 314.164C32440.4 312.397 32437.8 312.016 32436 312.118C32426.8 312.649 32418.2 306.977 32412.7 299.595C32407.1 292.212 32404.2 283.269 32401.4 274.504L32406.5 277.4C32408.3 276.491 32406.3 273.893 32404.4 273.033C32399.4 270.685 32394.7 267.647 32390.5 264.031C32387.8 261.711 32385.2 258.938 32384.5 255.45C32383.8 251.961 32385.9 247.747 32389.5 247.35C32391.1 247.166 32392.7 247.79 32394.2 248.416C32395.7 249.01 32397.2 249.606 32398.8 249.511C32398.2 247.615 32396.4 246.551 32394.6 245.505C32394.1 245.213 32393.7 244.923 32393.2 244.616C32391.1 243.211 32389.4 239.991 32391.4 238.344ZM32435 317.269C32439.6 320.737 32445.8 322.041 32451.4 320.732C32448.8 327.418 32452.1 335.324 32457.6 339.918C32463.1 344.512 32470.4 346.408 32477.5 347.541C32477.3 360.137 32472.7 372.622 32464.8 382.415C32462.5 385.293 32458 384.668 32454.4 383.566C32440.4 379.205 32427.4 371.522 32416.9 361.329C32417.8 360.007 32419.3 359.263 32420.7 358.516C32422.1 357.828 32423.4 357.138 32424.3 355.995C32425.2 354.958 32425.6 353.647 32426 352.362C32429.6 339.75 32430.3 326.295 32427.9 313.382C32430.2 313.417 32432 314.876 32433.7 316.301C32434.2 316.632 32434.6 316.96 32435 317.269ZM32649.6 152.484C32646 154.529 32641.9 157.309 32641.8 161.474C32641.7 165.032 32644.5 167.416 32647.3 169.875C32649.3 171.611 32651.3 173.383 32652.5 175.632C32646.6 175.031 32641.4 170.607 32639.8 164.971C32638.3 159.336 32640.5 152.85 32645.2 149.342C32650.4 145.421 32652.1 138.369 32652.6 131.853C32652.7 130.51 32652.8 129.155 32652.9 127.799L32652.9 127.797C32653.2 122.569 32653.5 117.311 32655.6 112.59C32656.5 110.743 32657.9 108.82 32660 108.774C32663.2 108.701 32664.4 112.985 32664.5 116.223L32665.1 130.737C32666.4 128.305 32670.5 128.909 32672.1 131.165C32673.7 133.421 32673.7 136.445 32673.6 139.232C32674.4 133.045 32676.8 127.078 32680.7 122.164C32681.9 120.622 32683.7 119.037 32685.5 119.628C32687.5 120.252 32688 122.781 32688.1 124.848C32688.7 142.781 32683.3 160.861 32673 175.567C32669.7 180.253 32668.9 186.164 32668.2 191.841L32668.1 192.226C32664.8 216.772 32659.3 241.02 32651.7 264.588C32647.1 278.61 32641.7 292.63 32632.6 304.226C32627.8 310.341 32622.1 315.656 32616.4 320.913C32596.5 339.208 32576.2 357.16 32555.7 374.759C32554 374.758 32554.8 371.927 32556.1 370.785C32560.5 366.929 32565 363.102 32569.5 359.273C32588.4 343.192 32607.2 327.097 32624 308.835C32628.8 303.512 32633.5 297.98 32637.2 291.777C32640.8 285.806 32643.3 279.304 32645.7 272.776C32656.1 244.081 32663.4 214.241 32667.3 183.967C32667.6 181.794 32667.8 179.441 32666.7 177.543C32680.4 162.82 32687.2 141.968 32684.8 122.021C32679.5 124.471 32678.3 130.417 32677.2 136.54C32676.2 141.67 32675.1 146.925 32671.6 150.35L32671.1 135.857C32671 134.466 32670.8 132.807 32669.6 132.194C32667.5 131.183 32665.7 134.093 32665.5 136.38C32665.3 138.668 32664.9 141.676 32662.6 142.055C32663.4 131.51 32662.8 120.869 32660.8 110.484C32655.7 115.209 32655.6 122.921 32655.5 129.948C32655.5 130.382 32655.5 130.813 32655.5 131.241C32655.3 138.598 32653.4 147.378 32646.5 149.934C32648.2 151.228 32650 149.927 32652 148.597C32652.8 148.023 32653.6 147.444 32654.4 147.066C32659 144.97 32664.3 150.762 32663 155.646C32661.7 160.53 32656.3 163.309 32651.2 163.288C32652.3 161.523 32654.3 160.454 32656.3 159.427C32658.9 158.072 32661.4 156.79 32661.3 154.079C32661.1 151.722 32658.6 150.103 32656.2 150.119C32653.9 150.134 32651.7 151.325 32649.6 152.484ZM32431.4 237.21C32431.5 236.343 32432.8 236.216 32433.7 236.252C32436.5 236.363 32439.2 235.544 32441.8 234.69L32442.2 234.569C32444.7 233.751 32447.3 232.923 32450 232.848C32452.7 232.769 32455.7 233.666 32457.4 235.808C32457.6 236.09 32457.8 236.424 32457.8 236.774C32457.7 237.371 32456.9 237.658 32456.3 237.507C32455.8 237.39 32455.4 237.101 32455 236.814C32454.9 236.732 32454.8 236.651 32454.7 236.574C32451.6 234.464 32447.3 235.374 32443.8 236.647L32443.6 236.704L32443.5 236.741C32443.3 236.806 32443.1 236.872 32443 236.938L32443 236.94C32439.6 238.143 32436.1 239.417 32432.8 238.451C32432.1 238.267 32431.4 237.847 32431.4 237.21ZM32463 278.685C32465.2 278.786 32467.5 278.837 32469.2 277.599C32471.6 275.872 32471.9 272.404 32471.6 269.436C32471.5 267.679 32471.2 265.933 32470.9 264.188C32470.5 261.789 32470.2 259.392 32470.1 256.966C32470 252.777 32470.9 248.297 32473.9 245.372C32474.1 244.355 32472.7 243.627 32471.8 243.981C32470.8 244.336 32470.2 245.317 32469.8 246.258C32467 252.679 32467.7 259.949 32468.4 267.039V267.039L32468.4 267.04L32468.4 267.041L32468.4 267.042L32468.4 267.042L32468.4 267.043L32468.4 267.044C32468.5 268.121 32468.6 269.193 32468.7 270.258C32468.8 271.981 32468.8 274.01 32467.4 275.06C32466.4 275.841 32465.1 275.755 32463.7 275.67L32463.7 275.67C32463.3 275.642 32462.9 275.615 32462.5 275.618C32461.6 275.624 32460.5 275.955 32460.3 276.824C32460.1 278.053 32461.8 278.626 32463 278.685ZM32457.7 244.753C32458.7 244.611 32459.5 245.7 32459.5 246.727C32459.4 247.754 32458.8 248.653 32458.1 249.378C32455.5 252.004 32451.7 253.217 32448.1 253.238C32444.4 253.259 32440.9 252.185 32437.5 250.759C32436.8 250.451 32436 250.111 32435.5 249.524C32434.9 248.937 32434.6 248.038 32435 247.307C32435.3 246.576 32436.4 246.249 32436.9 246.829C32439.4 249.461 32443.3 250.142 32446.9 250.203C32450.1 250.259 32453.8 249.665 32455.6 246.908C32455.7 246.754 32455.8 246.59 32455.9 246.425L32455.9 246.425L32455.9 246.424C32456.4 245.665 32456.8 244.871 32457.7 244.753ZM32500.9 248.764C32496.9 252.272 32490.6 253.366 32485.5 251.462C32484.1 250.936 32482.7 250.149 32481.9 248.914C32481.6 248.431 32481.4 247.84 32481.7 247.32C32482 246.479 32483.2 246.258 32484.1 246.583C32484.8 246.829 32485.4 247.284 32485.9 247.738L32485.9 247.739L32485.9 247.739C32486.1 247.887 32486.3 248.034 32486.5 248.175C32489.7 250.654 32494.8 250.726 32498.1 248.338C32498.1 248.287 32498.2 248.236 32498.3 248.183L32498.3 248.183C32498.8 247.793 32499.4 247.385 32500 247.375C32500.8 247.363 32501.5 248.287 32500.9 248.764ZM32365.6 465.686C32364 466.597 32362.9 468.078 32361.9 469.528C32351.2 484.4 32341.8 500.16 32333.8 516.588C32325.7 533.185 32319 550.428 32312.3 567.646C32311.8 569.106 32311.2 570.796 32312 572.17C32313 574.07 32316 573.979 32317.6 572.543C32319.3 571.107 32319.9 568.879 32320.4 566.788C32329.8 531.915 32345.3 498.775 32365.2 468.67C32365.9 467.751 32366.4 466.388 32365.6 465.686ZM32453.4 299.806C32453.4 301.528 32451.4 302.512 32449.7 302.526C32447.9 302.541 32445.9 301.866 32444.9 300.293C32443.9 298.719 32444.4 296.197 32446.1 295.554L32434.2 290.967C32433.2 290.581 32432.2 290.189 32431.1 290.368C32430.9 290.41 32430.6 290.481 32430.4 290.553C32430 290.674 32429.6 290.794 32429.2 290.768C32428.5 290.727 32427.8 290.033 32428.1 289.429C32428.2 289.202 32428.4 289.057 32428.7 288.921L32433 286.124C32433.5 285.807 32434.1 285.477 32434.6 285.538C32435.2 285.598 32435.8 286.269 32435.5 286.788C32434.6 288.326 32436.7 289.756 32438.4 290.201C32444.1 291.694 32449.7 293.195 32455.5 293.522C32461.4 293.848 32467.4 292.922 32472.4 289.855C32473.9 288.913 32475.8 287.752 32477.3 288.716C32476.7 290.426 32475 291.374 32473.3 292.301C32471.5 293.339 32469.6 294.35 32469.5 296.373C32469.3 298.462 32467.5 300.29 32465.5 300.388C32463.4 300.485 32461.4 298.841 32461.1 296.775C32461 296.448 32460.7 296.32 32460.3 296.263C32458.9 296.003 32457.3 295.867 32455.9 296.396C32454.5 296.924 32453.3 298.28 32453.4 299.806ZM32451.2 296.1C32450.6 295.277 32449.2 295.4 32448.5 296.152C32447.7 296.903 32447.5 298.061 32447.6 299.115C32448.5 299.612 32449.7 299.505 32450.4 298.858C32451.2 298.21 32451.5 297.064 32451.2 296.1ZM32466.8 296.72C32466.9 296.303 32467.2 295.932 32467.5 295.711C32467.1 294.912 32465.9 295.225 32465.1 295.639C32464.7 295.859 32464.2 296.153 32464.1 296.638C32464.1 297.235 32464.7 297.693 32465.3 297.621C32465.9 297.549 32466.4 297.133 32466.8 296.735L32466.8 296.72ZM32491.4 239.718C32492 239.861 32492.5 240.004 32493.1 240.109C32496 240.652 32499.2 240.108 32501.7 238.631C32502.3 238.238 32501.7 237.212 32500.9 237.136C32500.3 237.077 32499.8 237.328 32499.2 237.576C32499 237.649 32498.9 237.721 32498.7 237.786C32496.6 238.616 32494.2 238.139 32491.8 237.663C32489.3 237.167 32486.9 236.673 32484.7 237.669C32484 238.029 32483.2 238.681 32483.3 239.461C32483.3 240.242 32484.5 240.844 32485.1 240.253C32486 239.304 32487.6 239.062 32489 239.217C32489.8 239.308 32490.6 239.513 32491.4 239.718L32491.4 239.718Z" fill="#00160A"/>
<path fill-rule="evenodd" clip-rule="evenodd" d="M32451.4 320.732C32449.7 321.116 32448 321.275 32446.3 321.221C32442.3 321.089 32437.6 335.212 32446.3 351.32C32454.9 367.148 32471 373.48 32473.1 368.47C32475.9 361.847 32477.4 354.712 32477.5 347.541C32470.4 346.408 32463.1 344.512 32457.6 339.918C32452.1 335.324 32448.8 327.418 32451.4 320.732Z" fill="#E7EAEE"/>
<circle cx="32420.4" cy="279.582" r="5.09876" fill="#FFB61D"/>
<circle cx="32485" cy="281.281" r="5.09876" fill="#FFB61D"/>
<path fill-rule="evenodd" clip-rule="evenodd" d="M32429.9 464.249C32431.7 462.12 32435.4 463.153 32438.2 463.9C32445.7 465.89 32454.8 463.66 32460.4 458.465C32466 453.238 32476.3 459.476 32483.7 456.257C32488.1 454.316 32491.7 449.007 32496.2 450.375C32501.7 452.053 32508.5 450.718 32513 447.142L32513 446.079L32513 443.734C32508.5 447.676 32501.4 449.211 32495.7 447.458C32491.2 446.09 32487.6 451.399 32483.1 453.34C32475.8 456.559 32465.5 450.321 32459.8 455.549C32454.4 460.639 32445.5 462.883 32438.1 461.098L32436.6 460.713C32434 460.037 32430.9 459.453 32429.3 461.332C32424.2 467.259 32414.1 469.712 32406.7 466.831L32407.6 469.879L32408 470.031C32415.4 472.453 32424.9 469.968 32429.9 464.249ZM32422.9 430.906C32424.8 428.904 32428.5 429.983 32431.2 430.766C32438.6 432.851 32447.8 430.921 32453.6 426.064C32459.5 421.176 32469.4 427.405 32476.9 424.485C32481.4 422.725 32485.3 417.711 32489.6 419.129C32495 420.868 32514.8 410.47 32514.8 410.47C32509.8 410.331 32495.2 418.07 32489.6 416.437L32489.2 416.315C32484.8 414.898 32481 419.912 32476.5 421.672C32469 424.591 32459 418.362 32453.2 423.25C32447.5 428.01 32438.5 429.959 32431.3 428.072L32429.8 427.669C32427.2 426.958 32424.2 426.326 32422.5 428.092C32417.1 433.664 32402.4 431.24 32399.7 432.846C32399.7 432.846 32417.7 436.282 32422.9 430.906Z" fill="#FFB61D"/>
<path fill-rule="evenodd" clip-rule="evenodd" d="M32428.3 527.445C32430.2 525.315 32433.9 526.349 32436.7 527.096C32444.2 529.086 32453.3 526.855 32458.9 521.661C32464.5 516.434 32474.8 522.672 32482.2 519.452C32486.6 517.512 32490.2 512.202 32494.7 513.57C32500.2 515.249 32507 513.913 32511.5 510.338L32511.5 509.275L32511.5 506.93C32507 510.872 32499.9 512.407 32494.1 510.654C32489.6 509.285 32486.1 514.595 32481.6 516.535C32474.2 519.755 32463.9 513.517 32458.3 518.744C32452.8 523.835 32444 526.079 32436.6 524.293L32435.1 523.909C32432.5 523.232 32429.4 522.649 32427.8 524.528C32422.7 530.454 32412.6 532.908 32405.1 530.026L32406.1 533.075L32406.5 533.227C32413.8 535.648 32423.4 533.163 32428.3 527.445ZM32421.4 494.102C32423.3 492.1 32426.9 493.179 32429.7 493.962C32437.1 496.047 32446.2 494.117 32452.1 489.26C32457.9 484.372 32467.9 490.601 32475.3 487.681C32479.9 485.921 32483.7 480.907 32488.1 482.325C32493.5 484.064 32513.3 473.665 32513.3 473.665C32508.3 473.526 32493.6 481.265 32488.1 479.633L32487.7 479.511C32483.3 478.093 32479.5 483.107 32474.9 484.867C32467.4 487.787 32457.5 481.558 32451.7 486.446C32445.9 491.206 32437 493.155 32429.7 491.268L32428.3 490.865C32425.7 490.154 32422.7 489.522 32421 491.288C32415.6 496.86 32400.9 494.436 32398.2 496.042C32398.2 496.042 32416.2 499.478 32421.4 494.102Z" fill="#FFB61D"/>
<path fill-rule="evenodd" clip-rule="evenodd" d="M32412.9 167.684C32417.8 170.71 32435.8 137.453 32462.7 137.453C32519.5 137.453 32523.8 121.357 32515.5 106.988C32513.1 116.797 32504.6 124.289 32495.2 127.866C32485.7 131.443 32475.4 131.658 32465.3 131.164C32455.2 130.67 32445 129.513 32435 130.512C32428.8 131.13 32422.2 132.809 32418 137.453C32411.6 144.524 32413 155.405 32414.8 164.749C32412 163.271 32410.5 159.754 32411.3 156.694C32400.1 158.755 32392 169.161 32389.1 180.157C32386.2 191.153 32387.6 202.75 32389 214.024C32389.6 218.81 32390.2 223.595 32390.8 228.38C32390.8 228.38 32393.4 189.83 32396.8 180.157C32401.5 166.988 32414 169.513 32412.9 167.684Z" fill="#E7EAEE"/>
<path fill-rule="evenodd" clip-rule="evenodd" d="M87.1084 2945.39C86.9756 2951.46 95.0529 2954.12 97.7589 2959.55C91.941 2958.95 86.7066 2954.53 85.1458 2948.89C83.585 2943.26 85.7978 2936.77 90.4777 2933.26C95.7101 2929.34 97.4125 2922.29 97.9364 2915.77C98.4602 2909.26 98.2197 2902.46 100.936 2896.51C101.78 2894.66 103.23 2892.74 105.26 2892.69C108.5 2892.62 109.663 2896.91 109.793 2900.14C109.986 2904.98 110.18 2909.82 110.374 2914.66C111.741 2912.23 115.755 2912.83 117.396 2915.09C119.037 2917.34 118.998 2920.37 118.892 2923.15C119.655 2916.97 122.129 2911 125.966 2906.08C127.171 2904.54 128.982 2902.96 130.848 2903.55C132.819 2904.17 133.305 2906.7 133.373 2908.77C133.965 2926.7 128.596 2944.78 118.313 2959.49C114.962 2964.28 114.204 2970.35 113.422 2976.15C110.108 3000.69 104.598 3024.94 96.9786 3048.51C92.4456 3062.53 87.0349 3076.55 77.9403 3088.15C73.1438 3094.26 67.4187 3099.58 61.6943 3104.83C41.7748 3123.13 21.5402 3141.08 1.00274 3158.68C-0.743504 3158.68 0.0583704 3155.85 1.37889 3154.71C24.5602 3134.65 48.5555 3115.36 69.2506 3092.76C74.1224 3087.43 78.8277 3081.9 82.5132 3075.7C86.0607 3069.73 88.611 3063.22 90.982 3056.7C101.405 3028 108.672 2998.16 112.611 2967.89C112.893 2965.71 113.126 2963.36 112.03 2961.46C125.699 2946.74 132.496 2925.89 130.127 2905.94C120.343 2910.45 124.626 2926.76 116.906 2934.27C116.731 2929.44 116.555 2924.61 116.38 2919.78C116.329 2918.39 116.115 2916.73 114.864 2916.11C112.801 2915.1 111.019 2918.01 110.81 2920.3C110.601 2922.59 110.2 2925.6 107.933 2925.98C108.676 2915.43 108.049 2904.79 106.073 2894.4C100.689 2899.42 100.886 2907.8 100.751 2915.16C100.616 2922.52 98.7051 2931.3 91.8035 2933.85C94.1864 2935.71 97.0007 2932.24 99.7474 2930.99C104.343 2928.89 109.608 2934.68 108.323 2939.57C107.038 2944.45 101.558 2947.23 96.5064 2947.21C98.9652 2943.12 106.847 2942.77 106.57 2938C106.433 2935.64 103.881 2934.02 101.52 2934.04C99.1581 2934.05 96.9845 2935.25 94.9269 2936.4C91.296 2938.45 87.1995 2941.23 87.1084 2945.39Z" fill="#00160A"/>
</svg>
