<svg width="750" height="750" viewBox="0 0 750 750" fill="none" xmlns="http://www.w3.org/2000/svg">
<rect width="750" height="750" fill="white"/>
<path fill-rule="evenodd" clip-rule="evenodd" d="M584.982 388.844C586.293 550.269 515.682 668.192 380.688 674.887C282.297 679.767 341.155 525.393 217.842 422.896C138.91 357.288 86.8124 186.822 281.35 142.746C475.888 98.6707 583.672 227.42 584.982 388.844Z" fill="#64FCD9"/>
<path d="M186.621 623.243C174.375 600.667 176.375 573.349 178.903 547.791C184.719 489.001 193.672 425.693 234.852 383.333C245.743 372.13 259.037 362.631 274.294 359.257C286.116 356.644 297.506 352.083 307.865 345.814C310.362 331.192 296.603 319.678 286.991 308.379C276.227 295.727 269.511 279.681 268.055 263.134C267.194 253.338 265.137 239.992 255.313 239.575C247.237 239.231 241.158 229.487 244.399 222.083C247.641 214.679 258.925 212.537 264.655 218.238C256.481 187.596 273.748 152.242 302.939 139.849C298.179 133.042 308.568 124.884 316.816 125.859C325.065 126.834 333.049 131.817 341.148 129.976C338.373 125.088 342.82 118.595 348.299 117.343C353.779 116.091 359.402 118.47 364.317 121.197C395.866 138.7 416.716 173.999 416.815 210.079C417.631 203.493 427.514 201.238 432.347 205.785C437.181 210.331 436.951 218.469 433.519 224.149C430.086 229.828 424.236 233.557 418.446 236.798C418.592 260.724 409.493 284.59 393.455 302.346C381.785 315.266 365.25 328.971 369.08 345.954C375.288 344.581 381.568 351.743 379.396 357.719C406.014 355.501 430.854 371.567 449.712 390.483C477.357 418.212 497.226 453.614 506.497 491.656C508.116 498.301 517.57 500.113 523.419 496.567C529.268 493.022 532.274 486.317 534.94 480.018L587.593 355.589C584.2 338.826 586.945 321.501 589.696 304.62L598.823 248.597C599.652 243.512 603.209 236.802 607.905 238.922C609.527 239.654 610.433 241.238 611.005 242.983C611.271 243.792 611.464 244.635 611.625 245.445C614.472 259.81 615.382 274.558 614.322 289.164L632.549 257.984C635.499 252.939 641.611 247.357 646.173 249.445C647.888 249.781 649.051 251.492 649.296 253.237C649.946 255.609 649.395 258.462 648.653 260.923C645.328 271.944 639.908 282.33 632.768 291.361C642.394 294.644 653.544 299.629 655.229 309.659C654.229 327.843 640.826 348.719 630.945 359.556C633.212 358.188 634.695 362.259 634.244 364.869C623.405 427.577 596.994 487.534 558.04 537.857C546.545 552.708 533.195 564.201 512.253 566.273C483.713 569.097 465 527 449.502 528.126C449.502 528.126 435 603 424.5 613C414 623 345 644 324.207 637C303.415 630 282.617 648.719 255.313 646.843C227.015 644.898 186.621 623.243 186.621 623.243Z" fill="white"/>
<path d="M620.267 373.109C620.019 372.779 619.85 372.389 619.778 371.983C619.506 370.448 620.88 368.843 622.438 368.874C623.997 368.906 625.304 370.566 624.97 372.088C624.637 373.61 622.755 374.571 621.326 373.947C620.909 373.765 620.54 373.473 620.267 373.109Z" fill="#00160A"/>
<path d="M365.925 212.998C364.866 212.759 364.351 211.431 364.643 210.386C364.936 209.34 365.796 208.557 366.684 207.931C372.728 203.671 381.924 204.773 386.79 210.342C387.177 210.786 387.558 211.306 387.539 211.895C387.52 212.484 386.875 213.055 386.353 212.782C383.614 211.354 380.821 209.906 377.781 209.355C374.741 208.803 371.36 209.275 369.046 211.322C368.123 212.139 367.128 213.27 365.925 212.998Z" fill="#00160A"/>
<path d="M314.036 212.792C313.704 213.813 312.374 214.186 311.34 213.898C310.306 213.609 309.475 212.863 308.599 212.243C305.717 210.204 302.063 209.425 298.541 209.654C295.018 209.882 291.612 211.062 288.456 212.644C287.733 213.007 286.873 212.165 286.917 211.358C286.962 210.55 287.569 209.894 288.182 209.366C291.464 206.54 295.925 205.249 300.25 205.472C304.576 205.695 308.757 207.356 312.32 209.819C313.332 210.519 314.416 211.621 314.036 212.792Z" fill="black"/>
<path d="M621.753 384.511C621.387 385.001 620.861 385.346 620.329 385.647C619.776 385.961 619.167 386.247 618.533 386.198C617.691 386.133 616.988 385.471 616.641 384.701C615.788 382.804 617.238 380.212 619.317 380.139C621.395 380.065 622.999 382.845 621.753 384.511Z" fill="#00160A"/>
<path d="M436.781 463.575C437.79 464.038 437.071 465.669 436.041 466.085C435.012 466.502 433.715 466.515 433.044 467.4C432.566 468.03 432.586 468.893 432.633 469.682C432.73 471.295 432.832 473.006 432.064 474.427C431.296 475.848 429.293 476.724 428.012 475.74C426.836 474.837 426.941 473.084 426.9 471.602C426.859 470.119 426.114 468.264 424.633 468.331C417.381 468.663 410.129 468.994 402.877 469.326C401.957 469.368 400.911 469.361 400.285 468.687C399.427 467.764 400.009 466.134 401.092 465.49C402.176 464.845 403.521 464.898 404.779 464.971C410.108 465.279 415.437 465.587 420.765 465.895C421.593 465.942 422.461 465.983 423.21 465.627C423.959 465.272 424.522 464.379 424.219 463.607C423.405 461.54 424.486 458.923 426.522 458.034C427.229 457.725 427.55 456.909 427.725 456.158C427.9 455.406 428.026 454.589 428.561 454.033C429.096 453.477 430.22 453.442 430.501 454.16C431.149 455.818 432.735 456.888 433.85 458.276C434.965 459.663 435.481 461.969 434.07 463.053C434.148 464.07 435.854 463.15 436.781 463.575Z" fill="#00160A"/>
<path d="M294.95 276.395C293.938 276.333 293.518 274.711 294.372 274.166C295.447 274.09 295.92 275.93 294.941 276.382L294.95 276.395Z" fill="#FFB61D"/>
<path d="M375.842 251.008C375.551 250.484 375.855 249.729 376.427 249.552C376.999 249.375 377.677 249.827 377.733 250.423C377.574 251.199 376.443 251.551 375.872 251.002L375.842 251.008Z" fill="#FFB61D"/>
<path d="M372.448 241.015C372.021 241.861 370.475 241.625 370.319 240.69C370.632 240.264 371.081 239.94 371.583 239.777C372.009 240.09 372.337 240.535 372.51 241.034L372.448 241.015Z" fill="#FFB61D"/>
<path d="M351.748 278.71C352.382 278.668 353.023 279.048 353.289 279.625C353.075 280.277 352.265 280.729 351.658 280.409C351.05 280.089 351.109 278.968 351.783 278.838L351.748 278.71Z" fill="#FFB61D"/>
<path d="M370.742 279.655C371.054 278.875 372.506 279.173 372.487 280.012C372.049 280.447 371.48 280.748 370.875 280.867C370.387 280.7 370.266 279.931 370.678 279.622L370.742 279.655Z" fill="#FFB61D"/>
<path d="M338.046 244.462C337.406 244.465 336.935 245.288 337.258 245.841C337.58 246.394 338.528 246.39 338.846 245.834C339.164 245.278 338.686 244.459 338.046 244.462Z" fill="#FFB61D"/>
<path d="M299.442 254.218C298.926 253.831 298.049 254.207 297.972 254.847C297.896 255.487 298.66 256.059 299.252 255.805C299.845 255.552 299.958 254.604 299.442 254.218Z" fill="#FFB61D"/>
<path d="M385.716 255.755C385.1 255.957 384.4 255.267 384.585 254.645C384.77 254.023 385.718 253.821 386.149 254.306C386.579 254.792 386.278 255.699 385.645 255.841L385.716 255.755Z" fill="#FFB61D"/>
<path d="M334.369 274.795C334.13 274.196 333.185 274.058 332.785 274.564C332.385 275.07 332.738 275.958 333.377 276.051C334.015 276.144 334.607 275.395 334.369 274.795Z" fill="#FFB61D"/>
<path d="M333.36 290.632C332.912 290.763 332.566 290.217 332.489 289.756C332.931 288.918 334.464 289.152 334.635 290.084C334.365 290.492 333.842 290.718 333.359 290.635L333.36 290.632Z" fill="#FFB61D"/>
<path d="M339.481 289.882C338.786 290.053 337.807 289.713 337.877 289.001C338.292 288.573 338.94 288.265 339.479 288.517C340.019 288.769 340.049 289.762 339.461 289.86L339.481 289.882Z" fill="#FFB61D"/>
<path d="M370.873 289.555C370.586 289.344 370.39 289.013 370.341 288.66C370.641 288.229 371.088 287.902 371.591 287.749C371.887 288.048 372.184 288.347 372.48 288.647C372.153 289.21 371.522 289.583 370.872 289.598L370.873 289.555Z" fill="#FFB61D"/>
<path d="M343.448 246.259C342.94 246.949 341.617 246.613 341.5 245.764C341.932 244.846 343.652 245.255 343.624 246.27L343.448 246.259Z" fill="#FFB61D"/>
<path d="M357.531 280.164C356.957 280.717 355.793 280.139 355.887 279.347C355.981 278.555 357.248 278.265 357.677 278.938C357.36 279.17 357.232 279.627 357.381 279.991L357.531 280.164Z" fill="#FFB61D"/>
<path d="M322.479 244.723C323.095 244.521 323.795 245.211 323.61 245.833C323.425 246.455 322.477 246.658 322.046 246.172C321.615 245.686 321.917 244.779 322.55 244.637L322.479 244.723Z" fill="#FFB61D"/>
<path d="M337.53 264.871C338.134 264.366 339.235 264.806 339.326 265.588C338.911 265.965 338.346 266.275 337.81 266.113C337.274 265.952 337.019 265.102 337.507 264.827L337.53 264.871Z" fill="#FFB61D"/>
<path d="M351.26 269.926C351.675 269.083 353.213 269.305 353.372 270.231C352.911 271.074 351.373 270.848 351.175 269.908L351.26 269.926Z" fill="#FFB61D"/>
<path d="M352.108 274.765C352.533 274.139 353.743 274.545 353.704 275.3C353.429 275.737 352.986 276.065 352.487 276.201C351.99 275.934 351.788 275.232 352.066 274.742L352.108 274.765Z" fill="#FFB61D"/>
<path d="M372.135 245.368C371.74 244.852 370.785 244.977 370.536 245.578C370.287 246.178 370.872 246.943 371.517 246.858C372.162 246.773 372.531 245.884 372.135 245.368Z" fill="#FFB61D"/>
<path d="M361.871 293.191C361.993 292.629 362.983 292.901 363.044 293.474C363.106 294.046 362.643 294.525 362.217 294.913C361.894 294.706 361.552 294.475 361.415 294.117C361.279 293.759 361.483 293.255 361.866 293.245L361.871 293.191Z" fill="#FFB61D"/>
<path d="M314.169 240.528C313.93 239.929 312.985 239.791 312.585 240.297C312.186 240.803 312.539 241.691 313.177 241.784C313.815 241.877 314.407 241.127 314.169 240.528Z" fill="#FFB61D"/>
<path d="M338.721 293.193C338.395 292.674 337.488 292.708 337.201 293.25C336.915 293.793 337.399 294.561 338.012 294.538C338.624 294.515 339.048 293.711 338.721 293.193Z" fill="#FFB61D"/>
<path d="M298.531 273.88C298.876 273.491 299.581 273.964 299.565 274.485C299.55 275.005 299.131 275.411 298.742 275.757C297.904 275.623 297.762 274.188 298.557 273.893L298.531 273.88Z" fill="#FFB61D"/>
<path d="M343.464 284.875C343.109 285.095 342.755 285.314 342.4 285.534C341.751 285.296 341.675 284.218 342.284 283.891C342.893 283.564 343.749 284.221 343.59 284.894L343.464 284.875Z" fill="#FFB61D"/>
<path d="M384.823 274.39C384.625 273.776 385.824 273.578 386.06 274.178C386.296 274.778 385.819 275.427 385.287 275.791C384.762 275.558 384.421 274.965 384.484 274.394L384.823 274.39Z" fill="#FFB61D"/>
<path d="M370.334 274.95C370.723 274.389 371.575 274.216 372.153 274.58C372.304 275.421 371.239 276.193 370.487 275.789C370.413 275.513 370.339 275.237 370.265 274.961L370.334 274.95Z" fill="#FFB61D"/>
<path d="M313.101 269.252C313.717 269.049 314.417 269.739 314.231 270.361C314.046 270.983 313.098 271.186 312.668 270.7C312.237 270.215 312.538 269.307 313.171 269.165L313.101 269.252Z" fill="#FFB61D"/>
<path d="M380.039 236.353C380.046 235.812 380.61 235.35 381.141 235.45C381.673 235.55 382.031 236.185 381.842 236.691C381.282 237.115 380.384 236.984 379.969 236.418L380.039 236.353Z" fill="#FFB61D"/>
<path d="M366.359 264.845C366.879 264.428 367.807 264.901 367.775 265.566C367.318 266.277 366.1 266.277 365.642 265.567C365.882 265.328 366.122 265.088 366.362 264.848L366.359 264.845Z" fill="#FFB61D"/>
<path d="M307.366 279.083C307.891 278.528 308.933 278.623 309.349 279.263C309.033 279.699 308.619 280.146 308.081 280.171C307.543 280.197 307.035 279.498 307.407 279.109L307.366 279.083Z" fill="#FFB61D"/>
<path d="M385.839 284.684C385.625 284.97 385.297 285.167 384.944 285.221C384.302 284.855 384.304 283.712 384.993 283.447C385.683 283.181 386.428 284.252 385.875 284.742L385.839 284.684Z" fill="#FFB61D"/>
<path d="M299.165 284.976C299.669 284.625 299.593 283.719 299.037 283.458C298.482 283.197 297.735 283.716 297.787 284.328C297.838 284.939 298.661 285.326 299.165 284.976Z" fill="#FFB61D"/>
<path d="M385.557 266.344C385.053 266.858 384.203 265.789 384.691 265.259C385.178 264.729 386.123 265 386.558 265.574C386.259 265.873 385.959 266.172 385.66 266.471L385.557 266.344Z" fill="#FFB61D"/>
<path d="M293.562 241.752C293.424 240.878 294.84 240.306 295.347 241.032C294.925 241.586 294.504 242.14 294.082 242.694C293.775 242.48 293.562 242.136 293.506 241.766L293.562 241.752Z" fill="#FFB61D"/>
<path d="M298.987 266.344C298.483 266.858 297.633 265.789 298.121 265.259C298.608 264.729 299.553 265 299.988 265.574C299.689 265.873 299.389 266.172 299.089 266.471L298.987 266.344Z" fill="#FFB61D"/>
<path d="M375.817 241.343C375.387 240.933 375.471 240.118 375.976 239.804C376.481 239.489 377.249 239.774 377.426 240.342C377.176 240.915 376.539 241.293 375.916 241.24L375.817 241.343Z" fill="#FFB61D"/>
<path d="M312.282 245.753C312.679 245.042 313.871 245.001 314.317 245.683C314.177 246.68 312.392 246.734 312.191 245.747L312.282 245.753Z" fill="#FFB61D"/>
<path d="M348.608 249.872C348.619 250.381 348.443 250.891 348.121 251.284C347.561 251.599 346.811 250.894 347.005 250.282C347.199 249.669 348.065 249.45 348.598 249.809L348.608 249.872Z" fill="#FFB61D"/>
<path d="M333.898 284.202C333.717 283.624 332.842 283.427 332.432 283.873C332.021 284.318 332.289 285.175 332.88 285.307C333.471 285.44 334.079 284.78 333.898 284.202Z" fill="#FFB61D"/>
<path d="M352.755 288.969C353.016 289.653 352.499 290.514 351.773 290.606C351.293 290.403 351.069 289.751 351.322 289.295C351.575 288.84 352.248 288.686 352.674 288.986L352.755 288.969Z" fill="#FFB61D"/>
<path d="M321.955 294.063C321.955 293.406 322.343 292.765 322.925 292.459C323.345 292.88 323.647 293.529 323.39 294.066C323.132 294.603 322.138 294.619 322.051 294.03L321.955 294.063Z" fill="#FFB61D"/>
<path d="M376.023 288.602C376.527 288.087 377.377 289.156 376.889 289.687C376.401 290.217 375.457 289.945 375.022 289.372C375.321 289.073 375.621 288.774 375.92 288.474L376.023 288.602Z" fill="#FFB61D"/>
<path d="M333.098 245.316C333.602 244.802 334.453 245.871 333.965 246.401C333.477 246.931 332.533 246.66 332.097 246.087C332.397 245.787 332.696 245.488 332.996 245.189L333.098 245.316Z" fill="#FFB61D"/>
<path d="M303.431 275.489C303.063 275.09 303.565 274.388 304.107 274.406C304.649 274.423 305.074 274.871 305.376 275.322C304.947 275.947 303.928 276.042 303.392 275.506L303.431 275.489Z" fill="#FFB61D"/>
<path d="M313.868 258.86C314.381 258.819 314.587 259.624 314.235 260C313.882 260.375 313.297 260.393 312.786 260.333C312.319 259.698 313.132 258.65 313.864 258.943L313.868 258.86Z" fill="#FFB61D"/>
<path d="M339.125 303.98C338.59 304.663 337.267 304.312 337.141 303.453C337.598 302.642 339.13 303.052 339.121 303.983L339.125 303.98Z" fill="#FFB61D"/>
<path d="M312.561 275.763C312.274 275.204 312.651 274.406 313.272 274.313C313.893 274.22 314.494 274.932 314.262 275.516C314.029 276.099 313.049 276.167 312.769 275.605L312.561 275.763Z" fill="#FFB61D"/>
<path d="M332.999 294.599C332.549 294.744 332.225 294.169 332.104 293.711C332.566 293.002 333.781 292.994 334.251 293.699C333.944 294.126 333.5 294.454 333.001 294.622L332.999 294.599Z" fill="#FFB61D"/>
<path d="M337.074 255.465C337.247 254.537 338.749 254.272 339.229 255.086C339.004 255.954 337.643 256.218 337.109 255.496L337.074 255.465Z" fill="#FFB61D"/>
<path d="M385.84 270.134C385.66 269.556 384.784 269.359 384.374 269.805C383.963 270.25 384.231 271.107 384.822 271.24C385.413 271.372 386.021 270.713 385.84 270.134Z" fill="#FFB61D"/>
<path d="M344 275.672C343.48 276.089 342.552 275.616 342.584 274.951C343.041 274.24 344.259 274.24 344.717 274.95C344.477 275.189 344.237 275.429 343.998 275.669L344 275.672Z" fill="#FFB61D"/>
<path d="M333.714 302.549C334.165 302.405 334.489 302.979 334.609 303.437C334.147 304.147 332.933 304.154 332.463 303.449C332.77 303.022 333.214 302.694 333.712 302.526L333.714 302.549Z" fill="#FFB61D"/>
<path d="M391.25 235.63C391.486 235.867 391.723 236.103 391.959 236.339C391.54 236.98 390.457 237.203 390.035 236.565C389.613 235.926 390.8 235.02 391.148 235.702L391.25 235.63Z" fill="#FFB61D"/>
<path d="M370.898 251.29C371.363 251.698 372.23 251.404 372.351 250.798C372.472 250.191 371.784 249.587 371.198 249.785C370.612 249.984 370.433 250.882 370.898 251.29Z" fill="#FFB61D"/>
<path d="M342.039 289.577C342.225 289.144 342.905 289.046 343.207 289.407C343.546 289.953 343.238 290.833 342.6 290.906C341.962 290.979 341.525 289.945 342.085 289.63L342.039 289.577Z" fill="#FFB61D"/>
<path d="M313.154 279.103C313.605 278.959 313.929 279.534 314.049 279.992C313.747 280.422 313.301 280.748 312.8 280.907C312.515 280.685 312.318 280.354 312.257 279.998C312.557 279.697 312.857 279.396 313.157 279.096L313.154 279.103Z" fill="#FFB61D"/>
<path d="M377.493 265.725C377.619 266.566 376.388 267.212 375.767 266.631C375.502 265.789 376.893 265.009 377.363 265.756L377.493 265.725Z" fill="#FFB61D"/>
<path d="M328.658 265.043C329.071 265.295 329.299 265.816 329.205 266.29C328.692 266.489 328.128 266.553 327.583 266.472C327.415 266.208 327.351 265.879 327.407 265.57C327.827 265.389 328.247 265.209 328.668 265.028L328.658 265.043Z" fill="#FFB61D"/>
<path d="M352.499 284.132C352.686 284.517 352.731 284.97 352.622 285.384C352.132 285.81 351.213 285.415 351.184 284.766C351.156 284.118 352.037 283.644 352.562 284.025L352.499 284.132Z" fill="#FFB61D"/>
<path d="M382.206 275.633C381.635 276.153 380.536 275.739 380.449 274.972C380.639 274.529 381.206 274.291 381.656 274.466C382.105 274.641 382.362 275.201 382.202 275.656L382.206 275.633Z" fill="#FFB61D"/>
<path d="M333.892 241.035C334.222 241.256 334.369 241.715 334.23 242.087C333.733 242.557 332.737 242.399 332.566 241.737C332.395 241.076 333.494 240.514 333.828 241.111L333.892 241.035Z" fill="#FFB61D"/>
<path d="M299.314 270.432C299.346 269.825 298.591 269.336 298.05 269.612C297.509 269.888 297.463 270.787 297.972 271.117C298.482 271.448 299.283 271.038 299.314 270.432Z" fill="#FFB61D"/>
<path d="M347.408 266.954C346.811 266.764 346.767 265.775 347.319 265.478C347.871 265.182 348.637 265.661 348.68 266.286C348.422 266.695 347.901 266.918 347.426 266.825L347.408 266.954Z" fill="#FFB61D"/>
<path d="M298.34 245.303C297.94 244.765 299.186 244.305 299.468 244.912C299.751 245.52 299.249 246.206 298.704 246.595C298.308 246.341 298.097 245.828 298.199 245.369L298.34 245.303Z" fill="#FFB61D"/>
<path d="M338.585 284.685C338.37 284.972 338.04 285.169 337.686 285.223C337.4 285.014 337.204 284.685 337.157 284.333C337.444 283.902 337.89 283.58 338.39 283.444C338.881 283.612 339.013 284.38 338.605 284.702L338.585 284.685Z" fill="#FFB61D"/>
<path d="M381.151 285.048C380.73 285.228 380.309 285.408 379.888 285.589C379.601 285.361 379.401 285.027 379.333 284.668C379.706 284.361 380.137 284.048 380.617 284.086C381.098 284.125 381.513 284.739 381.195 285.102L381.151 285.048Z" fill="#FFB61D"/>
<path d="M347.506 288.32C347.917 288.533 348.327 288.746 348.738 288.96C348.291 289.433 347.698 289.766 347.062 289.904C346.775 289.695 346.577 289.367 346.528 289.015C346.741 288.728 347.072 288.531 347.426 288.482L347.506 288.32Z" fill="#FFB61D"/>
<path d="M299.264 288.648C299.594 288.87 299.741 289.328 299.602 289.701C299.105 290.17 298.109 290.012 297.938 289.35C297.767 288.689 298.866 288.128 299.2 288.724L299.264 288.648Z" fill="#FFB61D"/>
<path d="M332.872 270.971C333.017 271.832 334.661 271.556 334.517 270.695C334.372 269.834 332.728 270.11 332.872 270.971Z" fill="#FFB61D"/>
<path d="M351.558 249.197C352.334 249.114 352.986 250.103 352.605 250.783C352.227 251.073 351.615 250.979 351.341 250.589C351.068 250.199 351.19 249.591 351.591 249.336L351.558 249.197Z" fill="#FFB61D"/>
<path d="M294.146 270.2C294.569 269.778 295.377 270.417 295.189 270.985C295 271.552 294.216 271.733 293.682 271.464C293.323 271.053 293.54 270.297 294.062 270.138L294.146 270.2Z" fill="#FFB61D"/>
<path d="M332.99 259.971C333.426 259.349 334.635 259.766 334.595 260.525C334.244 261.006 333.569 261.22 333.005 261.03C332.741 260.742 332.731 260.256 332.982 259.957L332.99 259.971Z" fill="#FFB61D"/>
<path d="M376.275 244.833C376.569 245.026 376.762 245.364 376.781 245.715C376.473 246.489 375.034 246.209 375.039 245.376C375.285 244.962 375.81 244.735 376.28 244.84L376.275 244.833Z" fill="#FFB61D"/>
<path d="M309.064 293.972C309.351 294.531 308.974 295.328 308.353 295.421C307.732 295.514 307.131 294.802 307.363 294.219C307.596 293.635 308.576 293.567 308.856 294.129L309.064 293.972Z" fill="#FFB61D"/>
<path d="M322.174 284.164C322.774 284.099 323.542 284.127 323.771 284.685C323.5 285.115 323.057 285.434 322.563 285.553C322.279 285.397 321.975 285.221 321.844 284.924C321.712 284.627 321.875 284.19 322.2 284.18L322.174 284.164Z" fill="#FFB61D"/>
<path d="M385.66 246.272C386.235 246.072 386.405 245.185 385.944 244.786C385.483 244.387 384.63 244.684 384.515 245.282C384.401 245.881 385.084 246.472 385.66 246.272Z" fill="#FFB61D"/>
<path d="M362.384 250.062C363.026 250.453 362.62 251.684 361.872 251.616C361.445 251.471 361.187 250.952 361.33 250.524C361.473 250.096 361.991 249.836 362.419 249.977L362.384 250.062Z" fill="#FFB61D"/>
<path d="M343.532 293.365C343.366 292.53 341.772 292.847 341.938 293.682C342.104 294.516 343.698 294.199 343.532 293.365Z" fill="#FFB61D"/>
<path d="M302.621 246.07C302.787 246.905 304.381 246.588 304.215 245.753C304.05 244.918 302.455 245.235 302.621 246.07Z" fill="#FFB61D"/>
<path d="M381.689 289.907C381.298 290.549 380.067 290.144 380.135 289.395C380.28 288.968 380.799 288.711 381.227 288.853C381.654 288.996 381.914 289.514 381.773 289.943L381.689 289.907Z" fill="#FFB61D"/>
<path d="M298.884 239.894C299.507 239.658 300.233 240.422 299.965 241.031C299.415 241.326 298.719 241.327 298.168 241.035C298.24 240.594 298.529 240.194 298.925 239.987L298.884 239.894Z" fill="#FFB61D"/>
<path d="M333.363 251.316C333.069 251.123 332.875 250.786 332.857 250.435C333.165 249.661 334.604 249.941 334.599 250.774C334.353 251.188 333.828 251.414 333.358 251.31L333.363 251.316Z" fill="#FFB61D"/>
<path d="M361.329 280.717C361.051 280.214 361.524 279.489 362.097 279.532C362.671 279.576 363.032 280.351 362.701 280.822C362.371 281.293 361.528 281.226 361.27 280.712L361.329 280.717Z" fill="#FFB61D"/>
<path d="M346.528 255.476C346.72 255.182 347.058 254.988 347.409 254.97C348.183 255.277 347.903 256.717 347.07 256.711C346.656 256.465 346.429 255.941 346.534 255.471L346.528 255.476Z" fill="#FFB61D"/>
<path d="M386.455 240.128C386.497 240.431 386.539 240.734 386.58 241.037C386.022 241.321 385.329 241.323 384.769 241.043C384.749 240.248 385.753 239.635 386.451 240.015L386.455 240.128Z" fill="#FFB61D"/>
<path d="M329.203 298.397C328.824 297.638 327.375 298.36 327.753 299.12C328.131 299.879 329.581 299.156 329.203 298.397Z" fill="#FFB61D"/>
<path d="M362.775 259.777C362.175 259.18 361.036 260.327 361.637 260.923C362.237 261.52 363.376 260.373 362.775 259.777Z" fill="#FFB61D"/>
<path d="M347.96 240.322C347.581 239.563 346.131 240.286 346.51 241.045C346.888 241.804 348.338 241.082 347.96 240.322Z" fill="#FFB61D"/>
<path d="M381.193 280.338C380.827 279.549 379.318 280.249 379.685 281.039C380.051 281.829 381.56 281.128 381.193 280.338Z" fill="#FFB61D"/>
<path d="M297.666 280.168C298.037 280.922 299.476 280.212 299.104 279.459C298.733 278.706 297.294 279.415 297.666 280.168Z" fill="#FFB61D"/>
<path d="M357.339 294.42C357.146 294.714 356.809 294.907 356.458 294.926C355.683 294.618 355.963 293.179 356.797 293.184C357.21 293.43 357.437 293.955 357.333 294.425L357.339 294.42Z" fill="#FFB61D"/>
<path d="M329.37 270.088C328.998 269.334 327.56 270.044 327.931 270.797C328.302 271.55 329.741 270.841 329.37 270.088Z" fill="#FFB61D"/>
<path d="M376.263 254.934C376.72 255.41 376.236 256.371 375.581 256.287C375.106 256.15 374.844 255.53 375.076 255.093C375.308 254.656 375.968 254.527 376.348 254.843L376.263 254.934Z" fill="#FFB61D"/>
<path d="M342.194 304.165C341.955 303.926 341.716 303.686 341.477 303.447C341.922 302.734 343.136 302.72 343.597 303.422C343.367 303.961 342.768 304.317 342.185 304.262L342.194 304.165Z" fill="#FFB61D"/>
<path d="M386.742 250.961C386.502 251.2 386.263 251.439 386.023 251.678C385.31 251.233 385.296 250.019 385.999 249.557C386.537 249.787 386.894 250.386 386.838 250.969L386.742 250.961Z" fill="#FFB61D"/>
<path d="M317.671 250.065C317.864 249.771 318.201 249.578 318.552 249.559C319.327 249.867 319.046 251.306 318.213 251.301C317.799 251.055 317.573 250.53 317.677 250.06L317.671 250.065Z" fill="#FFB61D"/>
<path d="M300.118 251.329C299.671 251.57 299.038 251.339 298.851 250.867C298.664 250.394 298.969 249.792 299.46 249.663C300.117 249.771 300.477 250.68 300.071 251.208L300.118 251.329Z" fill="#FFB61D"/>
<path d="M357.394 255.83C357.39 254.99 355.786 254.997 355.79 255.837C355.793 256.677 357.397 256.67 357.394 255.83Z" fill="#FFB61D"/>
<path d="M348.32 284.69C347.942 283.931 346.492 284.654 346.871 285.413C347.249 286.172 348.699 285.449 348.32 284.69Z" fill="#FFB61D"/>
<path d="M389.191 246.07C389.357 246.905 390.951 246.588 390.786 245.753C390.62 244.918 389.025 245.235 389.191 246.07Z" fill="#FFB61D"/>
<path d="M341.634 270.063C342.164 269.508 343.21 269.609 343.624 270.254C343.328 270.683 342.883 271.007 342.384 271.159C342.007 270.912 341.722 270.528 341.595 270.096L341.634 270.063Z" fill="#FFB61D"/>
<path d="M375.127 269.966C375.716 269.615 376.597 269.987 376.755 270.653C376.414 271.12 375.752 271.322 375.208 271.127C374.944 270.841 374.933 270.357 375.183 270.06L375.127 269.966Z" fill="#FFB61D"/>
<path d="M342.264 265.186C342.052 264.799 342.532 264.321 342.969 264.381C343.407 264.442 343.723 264.826 343.937 265.212C343.607 265.892 342.459 265.916 342.101 265.252L342.264 265.186Z" fill="#FFB61D"/>
<path d="M389.991 274.777C390.382 274.135 391.613 274.541 391.545 275.289C391.4 275.716 390.881 275.974 390.453 275.831C390.025 275.688 389.765 275.17 389.906 274.742L389.991 274.777Z" fill="#FFB61D"/>
<path d="M337.687 269.735C338.191 269.457 338.915 269.929 338.872 270.503C338.829 271.077 338.053 271.437 337.582 271.107C337.111 270.776 337.178 269.934 337.692 269.675L337.687 269.735Z" fill="#FFB61D"/>
<path d="M341.842 279.642C342.146 279.383 342.635 279.376 342.945 279.627C342.972 280.274 342.588 280.921 342.007 281.207C341.428 280.937 341.322 280.011 341.824 279.617L341.842 279.642Z" fill="#FFB61D"/>
<path d="M384.376 280.379C384.976 280.976 386.115 279.829 385.515 279.233C384.915 278.637 383.776 279.783 384.376 280.379Z" fill="#FFB61D"/>
<path d="M328.822 251.525C328.136 250.954 328.938 249.587 329.771 249.907C330.146 250.549 329.588 251.506 328.845 251.495L328.822 251.525Z" fill="#FFB61D"/>
<path d="M329.009 245.559C328.637 244.806 327.199 245.516 327.57 246.269C327.942 247.022 329.38 246.313 329.009 245.559Z" fill="#FFB61D"/>
<path d="M293.321 246.63C293.034 246.419 292.838 246.089 292.788 245.737C293.083 245.31 293.523 244.987 294.018 244.833C294.519 245.437 294.101 246.53 293.324 246.645L293.321 246.63Z" fill="#FFB61D"/>
<path d="M375.58 285.685C375.013 285.684 374.581 284.972 374.85 284.472C375.119 283.972 375.962 283.948 376.253 284.435C376.543 284.923 376.106 285.658 375.54 285.628L375.58 285.685Z" fill="#FFB61D"/>
<path d="M385.316 235.755C385.823 235.921 386.269 236.268 386.555 236.718C386.151 237.308 385.236 237.464 384.658 237.041C384.824 236.613 384.989 236.184 385.154 235.756L385.316 235.755Z" fill="#FFB61D"/>
<path d="M337.686 279.639C337.694 279.141 338.227 278.723 338.713 278.833C339.199 278.943 339.5 279.549 339.293 280.003C338.731 280.385 337.866 280.201 337.509 279.622L337.686 279.639Z" fill="#FFB61D"/>
<path d="M346.432 260.566C346.168 260.062 346.585 259.348 347.154 259.331C347.723 259.314 348.182 260.002 347.948 260.521C347.527 260.802 346.937 260.804 346.515 260.525L346.432 260.566Z" fill="#FFB61D"/>
<path d="M308.92 240.879C308.746 241.556 307.767 241.854 307.244 241.389C307.047 240.972 307.26 240.401 307.694 240.243C308.128 240.085 308.675 240.417 308.708 240.877L308.92 240.879Z" fill="#FFB61D"/>
<path d="M302.27 270.834C302.108 270.417 302.344 269.889 302.764 269.733C303.183 269.577 303.707 269.822 303.857 270.244C303.721 270.905 302.832 271.272 302.27 270.9L302.27 270.834Z" fill="#FFB61D"/>
<path d="M317.847 280.537C317.562 280.32 317.364 279.991 317.307 279.637C317.604 279.343 317.901 279.049 318.199 278.756C318.969 279.085 318.686 280.514 317.849 280.526L317.847 280.537Z" fill="#FFB61D"/>
<path d="M303.409 285.536C302.839 285.745 302.354 284.815 302.775 284.377C303.196 283.938 304.017 284.16 304.31 284.693C304.013 284.991 303.715 285.29 303.418 285.589L303.409 285.536Z" fill="#FFB61D"/>
<path d="M302.695 241.944C302.275 241.428 302.749 240.497 303.414 240.533C303.829 240.78 304.058 241.304 303.958 241.775C303.571 241.964 303.12 242.019 302.699 241.929L302.695 241.944Z" fill="#FFB61D"/>
<path d="M371.937 265.391C372.446 265.529 372.235 266.411 371.719 266.525C371.204 266.639 370.711 266.288 370.307 265.949C370.668 265.457 371.358 265.236 371.937 265.427L371.937 265.391Z" fill="#FFB61D"/>
<path d="M380.534 265.86C380.253 265.654 379.973 265.448 379.692 265.243C380.134 264.502 381.389 264.479 381.857 265.203C381.606 265.615 381.082 265.84 380.611 265.74L380.534 265.86Z" fill="#FFB61D"/>
<path d="M389.177 241.709C388.86 241.267 389.278 240.545 389.822 240.564C390.365 240.584 390.74 241.277 390.491 241.761C390.081 242.046 389.494 242.049 389.082 241.767L389.177 241.709Z" fill="#FFB61D"/>
<path d="M357.346 270.982C356.828 271.4 355.899 270.928 355.932 270.262C356.105 269.963 356.442 269.766 356.788 269.764C357.273 269.937 357.577 270.508 357.449 271.007L357.346 270.982Z" fill="#FFB61D"/>
<path d="M313.603 288.003C313.885 288.218 314.168 288.432 314.45 288.647C313.992 289.086 313.413 289.4 312.794 289.546C312.37 289.036 312.857 288.104 313.518 288.161L313.603 288.003Z" fill="#FFB61D"/>
<path d="M309.003 250.062C308.625 249.303 307.175 250.026 307.553 250.785C307.932 251.544 309.382 250.821 309.003 250.062Z" fill="#FFB61D"/>
<path d="M302.518 289.017C302.734 288.731 303.063 288.533 303.418 288.478C303.703 288.694 303.901 289.023 303.958 289.376C303.658 289.675 303.359 289.974 303.06 290.274C302.653 290.012 302.431 289.492 302.523 289.017L302.518 289.017Z" fill="#FFB61D"/>
<path d="M337.172 241.379C337.675 241.996 338.854 241.035 338.351 240.418C337.848 239.8 336.669 240.762 337.172 241.379Z" fill="#FFB61D"/>
<path d="M380.059 260.53C380.016 259.702 381.445 259.371 381.77 260.134C381.664 260.895 380.467 261.182 380.028 260.552L380.059 260.53Z" fill="#FFB61D"/>
<path d="M389.993 270.802C389.699 271.362 388.625 270.862 388.864 270.276C388.924 269.822 389.496 269.521 389.904 269.728C390.313 269.936 390.407 270.575 390.075 270.891L389.993 270.802Z" fill="#FFB61D"/>
<path d="M343.087 255.597C342.517 255.806 342.032 254.876 342.453 254.438C342.874 254 343.695 254.222 343.988 254.754C343.691 255.053 343.393 255.351 343.096 255.65L343.087 255.597Z" fill="#FFB61D"/>
<path d="M308.482 288.546C308.868 288.325 309.356 288.809 309.295 289.25C309.234 289.691 308.844 290.009 308.456 290.227C307.805 289.91 307.832 288.783 308.497 288.498L308.482 288.546Z" fill="#FFB61D"/>
<path d="M322.371 242.131C322.188 241.37 323.169 240.492 323.736 241.032C323.701 241.461 323.649 241.928 323.348 242.235C323.046 242.543 322.406 242.521 322.285 242.108L322.371 242.131Z" fill="#FFB61D"/>
<path d="M358.074 298.023C358.118 298.851 356.689 299.182 356.364 298.418C356.469 297.658 357.667 297.371 358.105 298.001L358.074 298.023Z" fill="#FFB61D"/>
<path d="M318.386 288.641C317.562 288.753 317.777 290.325 318.6 290.213C319.423 290.101 319.209 288.528 318.386 288.641Z" fill="#FFB61D"/>
<path d="M356.431 288.486C357.144 288.942 357.154 290.161 356.448 290.629C355.737 290.164 355.734 288.944 356.443 288.476L356.431 288.486Z" fill="#FFB61D"/>
<path d="M323.429 255.465C322.859 255.851 321.985 255.669 321.618 255.087C321.993 254.784 322.424 254.47 322.905 254.508C323.386 254.547 323.801 255.164 323.48 255.525L323.429 255.465Z" fill="#FFB61D"/>
<path d="M338.412 299.298C338.117 299.858 337.043 299.358 337.283 298.772C337.343 298.318 337.914 298.017 338.323 298.224C338.731 298.432 338.825 299.071 338.494 299.387L338.412 299.298Z" fill="#FFB61D"/>
<path d="M294.392 261.008C293.821 261.217 293.336 260.287 293.757 259.848C294.178 259.41 294.999 259.632 295.293 260.164C294.995 260.463 294.698 260.762 294.4 261.06L294.392 261.008Z" fill="#FFB61D"/>
<path d="M372.319 236.896C372.024 237.456 370.95 236.955 371.19 236.369C371.25 235.915 371.821 235.614 372.229 235.822C372.638 236.03 372.732 236.668 372.401 236.985L372.319 236.896Z" fill="#FFB61D"/>
<path d="M351.884 245.39C352.103 245.959 351.88 246.666 351.375 247.007C351.043 246.598 350.69 246.109 350.803 245.595C350.915 245.081 351.803 244.876 351.927 245.387L351.884 245.39Z" fill="#FFB61D"/>
<path d="M338.408 274.765C338.827 275.283 338.355 276.213 337.689 276.179C337.39 276.007 337.193 275.669 337.191 275.323C337.364 274.838 337.935 274.535 338.434 274.662L338.408 274.765Z" fill="#FFB61D"/>
<path d="M342.081 241.586C342.032 242.372 343.533 242.466 343.582 241.681C343.631 240.895 342.13 240.801 342.081 241.586Z" fill="#FFB61D"/>
<path d="M366.9 254.569C367.187 254.78 367.384 255.111 367.432 255.465C367.176 255.874 366.656 256.099 366.183 256.006C365.755 255.496 366.239 254.559 366.902 254.614L366.9 254.569Z" fill="#FFB61D"/>
<path d="M347.603 303.442C347.387 303.728 347.057 303.926 346.703 303.98C346.417 303.766 346.22 303.437 346.166 303.083C346.439 302.757 346.831 302.463 347.251 302.527C347.672 302.592 347.949 303.211 347.606 303.462L347.603 303.442Z" fill="#FFB61D"/>
<path d="M381.505 255.098C381.14 255.663 380.291 255.842 379.729 255.473C379.472 255.088 379.878 254.535 380.339 254.5C380.8 254.465 381.216 254.772 381.531 255.111L381.505 255.098Z" fill="#FFB61D"/>
<path d="M312.714 251.069C312.363 250.646 312.767 249.886 313.317 249.909C313.866 249.932 314.219 250.667 313.922 251.129C313.624 251.591 312.852 251.603 312.511 251.173L312.714 251.069Z" fill="#FFB61D"/>
<path d="M328.825 294.067C328.931 294.354 328.87 294.695 328.671 294.927C328.117 295.185 327.336 294.662 327.474 294.067C327.612 293.472 328.71 293.491 328.741 294.101L328.825 294.067Z" fill="#FFB61D"/>
<path d="M375.933 280.125C375.53 280.09 375.501 279.43 375.834 279.2C376.167 278.971 376.614 279.047 377.009 279.132C377.197 279.383 377.264 279.72 377.185 280.024C376.795 280.207 376.344 280.258 375.923 280.166L375.933 280.125Z" fill="#FFB61D"/>
<path d="M337.685 249.878C338.047 249.878 338.408 249.878 338.769 249.877C338.939 250.144 339.003 250.476 338.944 250.787C338.538 250.949 338.069 251.109 337.68 250.91C337.29 250.711 337.264 249.978 337.699 249.929L337.685 249.878Z" fill="#FFB61D"/>
<path d="M358.131 250.283C357.85 249.547 356.446 250.084 356.727 250.82C357.008 251.555 358.412 251.018 358.131 250.283Z" fill="#FFB61D"/>
<path d="M380.089 251.508C379.998 251.101 380.085 250.615 380.43 250.38C380.775 250.145 381.369 250.357 381.371 250.775C381.306 251.138 381.221 251.536 380.926 251.758C380.631 251.979 380.078 251.825 380.093 251.457L380.089 251.508Z" fill="#FFB61D"/>
<path d="M294.473 251.852C293.905 252.044 293.265 251.368 293.487 250.812C293.71 250.256 294.639 250.207 294.918 250.737C294.744 251.051 294.57 251.364 294.395 251.678L294.473 251.852Z" fill="#FFB61D"/>
<path d="M316.945 299.122C316.885 298.458 317.826 297.97 318.334 298.401C318.554 298.766 318.403 299.302 318.025 299.5C317.647 299.697 317.121 299.515 316.946 299.126L316.945 299.122Z" fill="#FFB61D"/>
<path d="M362.47 275.752C363.046 275.224 362.037 274.123 361.46 274.652C360.884 275.18 361.894 276.281 362.47 275.752Z" fill="#FFB61D"/>
<path d="M333.715 281.22C333.219 281.378 332.715 280.738 332.926 280.262C333.136 279.785 333.846 279.669 334.253 279.994C334.375 280.466 334.137 281.007 333.707 281.237L333.715 281.22Z" fill="#FFB61D"/>
<path d="M365.943 237.855C365.401 237.325 366.209 236.228 366.876 236.589C367.396 237.102 366.622 238.159 365.976 237.818L365.943 237.855Z" fill="#FFB61D"/>
<path d="M334.077 255.272C333.472 255.34 332.698 255.299 332.468 254.734C332.832 254.263 333.503 254.054 334.07 254.236C334.333 254.525 334.343 255.01 334.093 255.31L334.077 255.272Z" fill="#FFB61D"/>
<path d="M361.287 245.312C361.899 245.059 362.635 245.829 362.353 246.429C362.065 246.734 361.519 246.737 361.227 246.436C360.935 246.136 360.954 245.59 361.267 245.311L361.287 245.312Z" fill="#FFB61D"/>
<path d="M356.263 240.682C356.479 240.396 356.809 240.198 357.163 240.144C357.449 240.358 357.647 240.688 357.7 241.041C357.486 241.327 357.156 241.524 356.803 241.578C356.516 241.364 356.319 241.033 356.269 240.679L356.263 240.682Z" fill="#FFB61D"/>
<path d="M334.023 265.634C333.636 266.294 332.489 266.258 332.145 265.575C332.473 264.891 333.626 264.859 333.992 265.523L334.023 265.634Z" fill="#FFB61D"/>
<path d="M308.457 284.119C308.845 284.068 309.137 284.559 309.011 284.928C308.884 285.298 308.491 285.515 308.106 285.584C307.821 285.369 307.624 285.04 307.571 284.687C307.784 284.4 308.115 284.203 308.469 284.153L308.457 284.119Z" fill="#FFB61D"/>
<path d="M348.239 294.226C348.255 294.508 348.272 294.789 348.288 295.071C347.939 295.57 346.982 295.301 346.944 294.694C346.906 294.086 347.823 293.701 348.231 294.152L348.239 294.226Z" fill="#FFB61D"/>
<path d="M366.901 279.098C367.187 279.313 367.385 279.643 367.439 279.997C367.225 280.283 366.895 280.481 366.542 280.534C366.256 280.32 366.059 279.99 366.005 279.637C366.219 279.35 366.55 279.153 366.904 279.103L366.901 279.098Z" fill="#FFB61D"/>
<path d="M322.391 299.475C322.259 299.076 322.37 298.577 322.727 298.354C323.084 298.132 323.657 298.329 323.717 298.746C323.565 299.057 323.412 299.368 323.259 299.68C322.954 299.645 322.649 299.61 322.344 299.575L322.391 299.475Z" fill="#FFB61D"/>
<path d="M348.358 246.093C348.4 246.576 347.884 247.019 347.413 246.906C346.941 246.792 346.684 246.162 346.942 245.751C347.338 245.371 348.116 245.586 348.261 246.116L348.358 246.093Z" fill="#FFB61D"/>
<path d="M307.715 275.107C308.075 274.584 309.096 275.037 308.95 275.654C308.799 275.966 308.461 276.177 308.115 276.177C307.717 276.024 307.52 275.49 307.725 275.116L307.715 275.107Z" fill="#FFB61D"/>
<path d="M380.641 244.821C381.083 245.507 380.215 246.548 379.46 246.237C379.356 245.56 379.927 244.857 380.612 244.82L380.641 244.821Z" fill="#FFB61D"/>
<path d="M302.502 260.163C302.48 259.488 303.409 259.012 303.944 259.424C304.222 260.171 302.942 260.838 302.489 260.182L302.502 260.163Z" fill="#FFB61D"/>
<path d="M389.261 259.613C389.506 259.291 389.962 259.148 390.347 259.273C390.525 259.522 390.589 259.849 390.517 260.146C390.22 260.319 389.923 260.493 389.626 260.667C389.232 260.507 389.042 259.976 389.245 259.603L389.261 259.613Z" fill="#FFB61D"/>
<path d="M352.315 240.649C352.838 241.009 352.385 242.03 351.768 241.884C351.456 241.733 351.245 241.395 351.245 241.049C351.398 240.651 351.932 240.454 352.306 240.659L352.315 240.649Z" fill="#FFB61D"/>
<path d="M308.669 245.699C309.192 246.059 308.74 247.08 308.122 246.934C307.811 246.783 307.599 246.445 307.6 246.099C307.752 245.701 308.286 245.504 308.661 245.709L308.669 245.699Z" fill="#FFB61D"/>
<path d="M353.009 259.436C352.621 259.996 351.77 260.169 351.194 259.804C351.183 258.953 352.656 258.663 352.968 259.455L353.009 259.436Z" fill="#FFB61D"/>
<path d="M321.996 280.36C322.212 280.074 322.542 279.876 322.896 279.822C323.182 280.036 323.379 280.366 323.433 280.719C323.218 281.005 322.889 281.202 322.535 281.256C322.248 281.042 322.052 280.711 322.002 280.357L321.996 280.36Z" fill="#FFB61D"/>
<path d="M329.207 255.829C328.991 256.115 328.661 256.312 328.307 256.367C328.021 256.152 327.824 255.823 327.77 255.469C327.985 255.183 328.314 254.986 328.668 254.933C328.955 255.146 329.151 255.478 329.201 255.832L329.207 255.829Z" fill="#FFB61D"/>
<path d="M380.108 270.643C380.392 269.983 381.509 269.957 381.824 270.603C381.504 271.294 380.343 271.334 379.976 270.667L380.108 270.643Z" fill="#FFB61D"/>
<path d="M352.281 303.423C351.982 303.605 351.683 303.788 351.384 303.97C351.1 303.763 350.907 303.435 350.863 303.086C351.122 302.678 351.642 302.453 352.116 302.545C352.289 302.806 352.35 303.137 352.282 303.442L352.281 303.423Z" fill="#FFB61D"/>
<path d="M351.573 293.707C351.406 293.305 352.062 293.107 352.493 293.17C352.68 293.557 352.734 294.007 352.642 294.427C352.384 294.6 352.055 294.664 351.75 294.602C351.578 294.342 351.516 294.011 351.585 293.707L351.573 293.707Z" fill="#FFB61D"/>
<path d="M321.996 251.142C322.212 250.856 322.542 250.659 322.896 250.604C323.182 250.819 323.379 251.148 323.433 251.502C323.218 251.788 322.889 251.985 322.535 252.038C322.248 251.825 322.052 251.493 322.002 251.139L321.996 251.142Z" fill="#FFB61D"/>
<path d="M371.227 259.619C371.624 259.443 371.829 260.102 371.764 260.532C371.377 260.72 370.929 260.777 370.508 260.693C370.337 260.431 370.273 260.102 370.334 259.795C370.594 259.623 370.925 259.562 371.229 259.63L371.227 259.619Z" fill="#FFB61D"/>
<path d="M308.99 255.474C309.081 255.774 309.024 256.115 308.84 256.37C308.528 256.444 308.186 256.38 307.922 256.198C307.925 255.836 307.928 255.474 307.931 255.112C308.235 254.721 309.001 254.974 309.012 255.47L308.99 255.474Z" fill="#FFB61D"/>
<path d="M323.649 271.182C323.289 271.704 322.268 271.252 322.414 270.634C322.565 270.323 322.903 270.112 323.249 270.112C323.647 270.264 323.844 270.798 323.639 271.173L323.649 271.182Z" fill="#FFB61D"/>
<path d="M314.043 254.436C314.394 254.513 314.524 255.05 314.247 255.279C313.647 255.34 312.882 255.308 312.653 254.751C312.904 254.254 313.61 254.055 314.085 254.348L314.043 254.436Z" fill="#FFB61D"/>
<path d="M333.716 298.576C334.002 298.791 334.2 299.121 334.254 299.476C334.04 299.762 333.71 299.959 333.357 300.013C333.071 299.798 332.874 299.469 332.82 299.115C333.034 298.828 333.365 298.631 333.719 298.581L333.716 298.576Z" fill="#FFB61D"/>
<path d="M346.518 269.889C346.976 269.556 347.72 269.757 347.948 270.275C347.583 270.746 346.913 270.954 346.346 270.771C346.104 270.527 346.216 270.041 346.541 269.927L346.518 269.889Z" fill="#FFB61D"/>
<path d="M318.599 266.492C318.239 267.015 317.218 266.563 317.364 265.945C317.515 265.634 317.853 265.422 318.199 265.423C318.598 265.575 318.794 266.109 318.589 266.483L318.599 266.492Z" fill="#FFB61D"/>
<path d="M347.442 279.445C347.05 278.843 345.9 279.592 346.292 280.194C346.684 280.796 347.834 280.047 347.442 279.445Z" fill="#FFB61D"/>
<path d="M308.898 270.443C308.819 271.197 307.506 271.335 307.272 270.613C307.531 270.032 308.461 269.925 308.845 270.432L308.898 270.443Z" fill="#FFB61D"/>
<path d="M342.397 299.601C341.618 299.306 341.898 297.856 342.732 297.874C343.116 298.43 342.94 299.292 342.369 299.654L342.397 299.601Z" fill="#FFB61D"/>
<path d="M303.704 255.399C303.429 255.198 303.154 254.997 302.878 254.795C303.165 254.102 304.341 254.077 304.657 254.756C304.454 255.043 304.125 255.238 303.776 255.28L303.704 255.399Z" fill="#FFB61D"/>
<path d="M356.619 283.957C357.148 284.318 357.046 285.276 356.453 285.518C355.737 285.28 355.866 283.981 356.615 283.889L356.619 283.957Z" fill="#FFB61D"/>
<path d="M380.231 241.955C380.623 242.557 381.773 241.808 381.381 241.206C380.989 240.603 379.839 241.352 380.231 241.955Z" fill="#FFB61D"/>
<path d="M346.561 298.056C346.85 297.394 347.973 297.374 348.285 298.025C347.981 298.685 346.847 298.679 346.551 298.015L346.561 298.056Z" fill="#FFB61D"/>
<path d="M328.016 240.966C328.217 240.691 328.419 240.416 328.62 240.141C329.313 240.427 329.339 241.604 328.659 241.92C328.373 241.716 328.178 241.388 328.136 241.039L328.016 240.966Z" fill="#FFB61D"/>
<path d="M371.253 255.243C370.793 255.169 370.85 254.374 371.29 254.217C371.729 254.059 372.208 254.366 372.479 254.747C372.225 255.155 371.703 255.378 371.233 255.28L371.253 255.243Z" fill="#FFB61D"/>
<path d="M366.04 270.278C366.269 269.768 366.991 269.56 367.456 269.871C367.596 270.265 367.341 270.752 366.937 270.86C366.533 270.969 366.068 270.676 365.992 270.264L366.04 270.278Z" fill="#FFB61D"/>
<path d="M323.235 264.713C323.695 264.788 323.638 265.582 323.199 265.74C322.759 265.897 322.28 265.59 322.01 265.21C322.264 264.801 322.785 264.578 323.256 264.676L323.235 264.713Z" fill="#FFB61D"/>
<path d="M361.474 271.172C361.866 271.774 363.017 271.025 362.624 270.423C362.232 269.821 361.082 270.57 361.474 271.172Z" fill="#FFB61D"/>
<path d="M329.581 289.755C330.183 289.362 329.434 288.212 328.832 288.605C328.23 288.997 328.979 290.147 329.581 289.755Z" fill="#FFB61D"/>
<path d="M375.846 260.81C375.571 260.609 375.295 260.407 375.02 260.206C375.306 259.513 376.483 259.487 376.799 260.167C376.595 260.453 376.267 260.648 375.918 260.691L375.846 260.81Z" fill="#FFB61D"/>
<path d="M372.095 270.236C371.806 270.897 370.683 270.917 370.371 270.267C370.674 269.607 371.808 269.613 372.105 270.277L372.095 270.236Z" fill="#FFB61D"/>
<path d="M386.162 260.136C385.873 260.797 384.75 260.817 384.438 260.167C384.742 259.507 385.876 259.513 386.172 260.177L386.162 260.136Z" fill="#FFB61D"/>
<path d="M316.801 284.98C316.998 284.567 317.195 284.154 317.392 283.742C317.785 284.011 318.141 284.461 318.028 284.924C317.916 285.387 317.1 285.519 317.005 285.052L316.801 284.98Z" fill="#FFB61D"/>
<path d="M390.642 255.433C390.229 255.236 389.817 255.038 389.404 254.841C389.673 254.448 390.123 254.093 390.586 254.205C391.049 254.317 391.181 255.133 390.714 255.228L390.642 255.433Z" fill="#FFB61D"/>
<path d="M366.189 288.491C366.506 288.405 366.86 288.467 367.128 288.656C366.986 289.168 366.64 289.62 366.183 289.891C365.623 289.683 365.632 288.712 366.196 288.514L366.189 288.491Z" fill="#FFB61D"/>
<path d="M293.659 265.634C293.433 264.814 295.013 264.401 295.217 265.226C294.989 265.72 294.28 265.91 293.835 265.597L293.659 265.634Z" fill="#FFB61D"/>
<path d="M293.701 255.604C293.24 255.529 293.298 254.735 293.737 254.578C294.176 254.42 294.656 254.727 294.926 255.108C294.672 255.516 294.151 255.739 293.68 255.641L293.701 255.604Z" fill="#FFB61D"/>
<path d="M362.424 283.963C362.404 284.325 362.178 284.669 361.854 284.832C361.189 284.527 361.196 283.386 361.864 283.089C362.149 283.293 362.343 283.621 362.385 283.969L362.424 283.963Z" fill="#FFB61D"/>
<path d="M303.425 281.317C302.88 281.324 302.797 280.534 302.906 280C303.181 279.727 303.677 279.724 303.954 279.994C304.075 280.467 303.837 281.007 303.407 281.238L303.425 281.317Z" fill="#FFB61D"/>
<path d="M367.396 284.699C367.219 283.994 365.872 284.331 366.048 285.036C366.225 285.741 367.572 285.404 367.396 284.699Z" fill="#FFB61D"/>
<path d="M366.697 246.768C366.308 246.987 365.886 246.356 366.114 245.972C366.343 245.589 366.863 245.504 367.308 245.543C367.489 246.013 367.185 246.608 366.698 246.736L366.697 246.768Z" fill="#FFB61D"/>
<path d="M352.091 254.613C352.552 254.688 352.494 255.482 352.055 255.64C351.616 255.797 351.136 255.49 350.866 255.11C351.12 254.701 351.641 254.478 352.112 254.577L352.091 254.613Z" fill="#FFB61D"/>
<path d="M299.47 259.733C299.696 260.553 298.116 260.966 297.912 260.141C298.14 259.648 298.849 259.457 299.294 259.77L299.47 259.733Z" fill="#FFB61D"/>
<path d="M323.605 274.769C323.97 275.173 323.786 275.925 323.276 276.116C322.472 275.933 322.864 274.39 323.659 274.614L323.605 274.769Z" fill="#FFB61D"/>
<path d="M338.114 259.247C338.164 259.554 338.213 259.86 338.263 260.167C337.806 260.509 337.051 260.314 336.817 259.793C337.06 259.383 337.582 259.161 338.046 259.27L338.114 259.247Z" fill="#FFB61D"/>
<path d="M312.989 294.787C312.246 294.964 312.141 293.606 312.787 293.199C313.372 293.469 313.491 294.398 312.992 294.806L312.989 294.787Z" fill="#FFB61D"/>
<path d="M329.367 303.309C329.827 303.384 329.77 304.178 329.331 304.336C328.892 304.493 328.412 304.186 328.142 303.806C328.396 303.397 328.917 303.174 329.388 303.272L329.367 303.309Z" fill="#FFB61D"/>
<path d="M366.704 259.442C366.792 259.742 366.737 260.08 366.557 260.336C366.084 260.445 365.538 260.233 365.313 259.803C365.566 259.305 366.272 259.105 366.748 259.397L366.704 259.442Z" fill="#FFB61D"/>
<path d="M365.282 241.046C365.483 240.754 365.819 240.559 366.172 240.529C366.724 240.756 366.728 241.703 366.178 241.934C365.878 241.637 365.579 241.339 365.279 241.041L365.282 241.046Z" fill="#FFB61D"/>
<path d="M308.286 260.146C307.882 260.511 307.129 260.327 306.938 259.818C307.122 259.013 308.664 259.406 308.441 260.2L308.286 260.146Z" fill="#FFB61D"/>
<path d="M348.166 275.244C348.391 276.064 346.812 276.477 346.607 275.652C346.836 275.158 347.545 274.968 347.989 275.28L348.166 275.244Z" fill="#FFB61D"/>
<path d="M355.881 245.33C356.272 245.144 356.798 245.339 356.973 245.735C356.677 246.029 356.382 246.323 356.087 246.617C355.602 246.435 355.479 245.675 355.883 245.351L355.881 245.33Z" fill="#FFB61D"/>
<path d="M360.926 241.804C360.568 241.554 360.562 240.938 360.917 240.682C361.271 240.426 361.854 240.624 361.979 241.043C361.771 241.434 361.383 241.725 360.949 241.814L360.926 241.804Z" fill="#FFB61D"/>
<path d="M362.089 289.377C362.051 289.878 361.286 290.118 360.969 289.728C360.806 289.254 361.109 288.72 361.537 288.458C361.721 288.752 361.905 289.047 362.089 289.342L362.089 289.377Z" fill="#FFB61D"/>
<path d="M395.033 250.942C394.733 251.031 394.395 250.975 394.139 250.796C394.03 250.323 394.242 249.776 394.672 249.552C395.17 249.805 395.37 250.51 395.078 250.987L395.033 250.942Z" fill="#FFB61D"/>
<path d="M342.009 250.965C341.671 250.518 341.866 249.773 342.381 249.55C342.788 249.8 343.01 250.318 342.91 250.784C342.65 250.955 342.32 251.016 342.016 250.949L342.009 250.965Z" fill="#FFB61D"/>
<path d="M365.891 250.345C366.094 250.066 366.298 249.788 366.501 249.51C366.944 249.737 367.192 250.287 367.07 250.769C366.777 251.169 366 250.912 366.002 250.417L365.891 250.345Z" fill="#FFB61D"/>
<path d="M371.588 294.611C371.249 294.163 371.444 293.419 371.959 293.196C372.366 293.445 372.588 293.963 372.488 294.43C372.228 294.601 371.898 294.662 371.594 294.595L371.588 294.611Z" fill="#FFB61D"/>
<path d="M317.483 260.353C317.252 260.036 317.382 259.523 317.736 259.353C318.09 259.184 318.571 259.405 318.673 259.784C318.528 260.276 317.942 260.588 317.452 260.433L317.483 260.353Z" fill="#FFB61D"/>
<path d="M313.225 297.349C313.635 297.544 314.045 297.74 314.455 297.936C314.225 298.396 313.669 298.668 313.164 298.568C312.907 298.268 312.894 297.786 313.135 297.472L313.225 297.349Z" fill="#FFB61D"/>
<path d="M352.545 298.563C352.591 298.866 352.637 299.169 352.683 299.472C352.425 299.654 352.083 299.71 351.781 299.62C351.254 299.207 351.928 298.174 352.518 298.49L352.545 298.563Z" fill="#FFB61D"/>
<path d="M367.114 294.425C367.09 294.788 366.865 295.131 366.541 295.298C366.117 295.073 365.887 294.534 366.018 294.072C366.313 293.676 367.085 293.936 367.081 294.429L367.114 294.425Z" fill="#FFB61D"/>
<path d="M357.164 260.338C356.927 260.562 356.689 260.785 356.452 261.008C355.957 260.906 355.766 260.151 356.153 259.827C356.541 259.502 357.251 259.822 357.264 260.327L357.164 260.338Z" fill="#FFB61D"/>
<path d="M390.5 250.428C390.71 250.978 390.225 251.665 389.637 251.651C389.133 251.117 389.888 250.071 390.554 250.381L390.5 250.428Z" fill="#FFB61D"/>
<path d="M390.353 266.111C389.95 266.28 389.75 265.62 389.814 265.187C390.269 264.862 391.004 265.067 391.223 265.582C391.02 265.866 390.693 266.06 390.346 266.101L390.353 266.111Z" fill="#FFB61D"/>
<path d="M303.949 250.778C304.039 251.314 303.346 251.791 302.877 251.516C302.86 251.124 302.865 250.675 303.159 250.415C303.452 250.154 304.077 250.415 303.933 250.78L303.949 250.778Z" fill="#FFB61D"/>
<path d="M361.136 299.293C360.845 299.091 360.65 298.756 360.619 298.403C360.846 297.851 361.793 297.847 362.025 298.397C361.727 298.696 361.429 298.996 361.131 299.296L361.136 299.293Z" fill="#FFB61D"/>
<path d="M328.308 285.226C328.022 285.011 327.825 284.681 327.77 284.326C327.986 284.04 328.315 283.843 328.669 283.787C329.018 284.228 328.811 284.984 328.287 285.186L328.308 285.226Z" fill="#FFB61D"/>
<path d="M361.111 266.49C360.829 266.033 361.288 265.337 361.819 265.415C362.352 265.827 361.686 266.869 361.089 266.559L361.111 266.49Z" fill="#FFB61D"/>
<path d="M304.441 265.13C304.784 265.735 303.712 266.448 303.287 265.899C302.917 265.39 303.903 264.746 304.32 265.217L304.441 265.13Z" fill="#FFB61D"/>
<path d="M375.924 236.555C376.212 236.444 376.56 236.511 376.786 236.721C377.029 237.169 376.527 237.8 376.035 237.663C375.543 237.527 375.438 236.728 375.877 236.469L375.924 236.555Z" fill="#FFB61D"/>
<path d="M371.973 283.766C372.255 284.223 371.796 284.92 371.265 284.841C370.732 284.43 371.398 283.387 371.995 283.697L371.973 283.766Z" fill="#FFB61D"/>
<path d="M356.616 266.629C356.143 266.849 355.847 266.086 355.908 265.568C356.162 265.265 356.709 265.294 356.93 265.622C357.151 265.95 356.974 266.468 356.599 266.591L356.616 266.629Z" fill="#FFB61D"/>
<path d="M323.633 259.966C323.854 260.295 323.706 260.808 323.345 260.969C322.983 261.131 322.502 260.897 322.406 260.513C322.636 260.099 323.162 259.875 323.62 259.996L323.633 259.966Z" fill="#FFB61D"/>
<path d="M328.859 260.588C328.556 260.637 328.252 260.685 327.949 260.733C327.646 260.286 328.123 259.571 328.652 259.678C329.007 259.756 329.136 260.301 328.854 260.531L328.859 260.588Z" fill="#FFB61D"/>
<path d="M317.86 246.643C317.212 246.806 317.298 245.625 317.834 245.226C318.401 245.416 318.399 246.4 317.831 246.588L317.86 246.643Z" fill="#FFB61D"/>
<path d="M313.178 284.126C313.46 284.584 313.001 285.28 312.469 285.201C311.937 284.79 312.602 283.748 313.199 284.058L313.178 284.126Z" fill="#FFB61D"/>
<path d="M307.444 266.215C307.641 265.967 307.838 265.718 308.034 265.47C308.486 265.488 308.791 266.09 308.538 266.465C308.285 266.84 307.613 266.783 307.427 266.371L307.444 266.215Z" fill="#FFB61D"/>
<path d="M361.458 254.947C361.258 254.565 361.46 254.031 361.862 253.875C362.15 254.068 362.343 254.397 362.369 254.743C362.248 255.088 361.732 255.205 361.474 254.947L361.458 254.947Z" fill="#FFB61D"/>
<path d="M312.402 266.129C312.202 265.747 312.403 265.212 312.805 265.057C313.094 265.249 313.287 265.579 313.312 265.925C313.192 266.269 312.675 266.387 312.418 266.129L312.402 266.129Z" fill="#FFB61D"/>
<path d="M395.111 245.543C395.158 245.86 395.206 246.176 395.253 246.492C394.939 246.554 394.624 246.616 394.31 246.678C394.013 246.208 394.479 245.482 395.03 245.556L395.111 245.543Z" fill="#FFB61D"/>
<path d="M318.24 270.061C318.499 270.545 318.025 271.23 317.481 271.16C317.314 270.894 317.251 270.564 317.308 270.256C317.569 270.083 317.901 270.022 318.206 270.09L318.24 270.061Z" fill="#FFB61D"/>
<path d="M317.506 255.96C316.939 255.791 316.923 254.81 317.484 254.622C318.047 254.808 318.033 255.791 317.466 255.962L317.506 255.96Z" fill="#FFB61D"/>
<path d="M318.4 294.418C318.433 294.767 318.193 295.122 317.857 295.222C317.416 295.167 317.164 294.555 317.439 294.205C317.715 293.856 318.369 293.959 318.525 294.376L318.4 294.418Z" fill="#FFB61D"/>
<path d="M322.501 289.936C322.302 289.554 322.503 289.019 322.905 288.864C323.194 289.056 323.386 289.386 323.412 289.732C323.292 290.076 322.775 290.194 322.518 289.935L322.501 289.936Z" fill="#FFB61D"/>
<path d="M317.641 240.686C317.678 240.145 318.318 239.603 318.732 239.953C318.788 240.306 318.79 240.717 318.529 240.961C318.268 241.206 317.702 241.023 317.774 240.673L317.641 240.686Z" fill="#FFB61D"/>
<path d="M366.718 275.995C366.375 276.165 365.956 275.752 366.031 275.377C366.106 275.002 366.514 274.767 366.896 274.763C367.211 275.127 367.125 275.763 366.723 276.029L366.718 275.995Z" fill="#FFB61D"/>
<path d="M328.001 279.558C328.2 279.315 328.399 279.072 328.598 278.829C329.025 278.811 329.353 279.365 329.132 279.731C328.91 280.097 328.267 280.063 328.085 279.676L328.001 279.558Z" fill="#FFB61D"/>
<path d="M357.16 276.194C356.852 276.272 356.514 276.221 356.244 276.055C356.247 275.571 356.669 275.058 357.144 275.159C357.618 275.26 357.616 276.156 357.132 276.13L357.16 276.194Z" fill="#FFB61D"/>
<path d="M352.455 264.724C352.863 264.836 353.072 265.39 352.84 265.744C352.498 265.826 352.121 265.746 351.843 265.532C352.033 265.231 352.223 264.931 352.414 264.631L352.455 264.724Z" fill="#FFB61D"/>
<path d="M317.647 274.522C318.235 274.5 317.947 275.468 317.481 275.828C317.174 275.467 317.269 274.841 317.67 274.588L317.647 274.522Z" fill="#FFB61D"/>
<path d="M375.732 274.586C376.202 274.813 376.079 275.67 375.564 275.756C374.951 275.636 375.133 274.477 375.752 274.55L375.732 274.586Z" fill="#FFB61D"/>
<path d="M341.78 260.28C341.486 260.119 341.67 259.609 341.996 259.531C342.322 259.453 342.646 259.641 342.929 259.821C342.914 260.315 342.131 260.544 341.852 260.136L341.78 260.28Z" fill="#FFB61D"/>
<path d="M329.029 275.842C328.802 276.312 327.945 276.188 327.86 275.673C327.98 275.061 329.138 275.242 329.066 275.862L329.029 275.842Z" fill="#FFB61D"/>
<path d="M303.271 293.359C303.404 292.935 304.136 292.924 304.282 293.343C304.138 293.764 303.403 293.753 303.272 293.329L303.271 293.359Z" fill="#FFB61D"/>
<path d="M322.749 303.098C322.882 302.674 323.614 302.663 323.76 303.082C323.616 303.503 322.882 303.492 322.75 303.068L322.749 303.098Z" fill="#FFB61D"/>
<path d="M394.8 241.018C394.699 241.421 394.155 241.636 393.807 241.409C393.634 241.085 393.768 240.614 394.111 240.483C394.455 240.352 394.897 240.686 394.815 241.044L394.8 241.018Z" fill="#FFB61D"/>
<path d="M385.22 290.042C384.977 289.843 384.734 289.644 384.491 289.445C384.473 289.018 385.027 288.69 385.393 288.912C385.759 289.133 385.725 289.776 385.338 289.958L385.22 290.042Z" fill="#FFB61D"/>
<path d="M375.742 294.799C375.387 294.642 375.518 293.984 375.906 293.976C376.423 293.992 376.149 295.063 375.755 294.729L375.742 294.799Z" fill="#FFB61D"/>
<path d="M324.207 634C301.503 613.258 282.284 588.71 267.597 561.691C261.402 550.294 255.866 537.489 258.185 524.727C262.522 500.855 253.558 476.867 246.497 453.654C239.435 430.441 234.433 404.228 245.791 382.788C227.873 399.311 220.687 424.348 216.846 448.417C207.941 504.218 212.953 562.185 231.304 615.629C209.756 576.185 208.909 528.993 210.953 484.094C212.543 449.156 216.45 411.951 238.396 384.721C204.609 412.276 194.329 458.79 186.873 501.747C179.873 542.082 173.642 584.416 186.621 623.243C174.375 600.667 176.375 573.349 178.903 547.791C184.719 489.001 193.672 425.693 234.852 383.333C245.743 372.13 259.037 362.631 274.294 359.257C286.116 356.644 297.506 352.083 307.865 345.814C310.362 331.192 296.603 319.678 286.991 308.379C276.227 295.727 269.511 279.681 268.055 263.134C267.194 253.338 265.137 239.992 255.313 239.575C247.237 239.231 241.158 229.487 244.399 222.083C247.641 214.679 258.925 212.537 264.655 218.238C256.481 187.596 273.748 152.242 302.939 139.849C298.179 133.042 308.568 124.884 316.816 125.859C325.065 126.834 333.049 131.817 341.148 129.976C338.373 125.088 342.82 118.595 348.299 117.343C353.779 116.091 359.402 118.47 364.317 121.197C395.866 138.7 416.716 173.999 416.815 210.079C417.631 203.493 427.514 201.238 432.347 205.785C437.181 210.331 436.951 218.469 433.519 224.149C430.086 229.828 424.236 233.557 418.446 236.798C418.592 260.724 409.493 284.59 393.455 302.346C381.785 315.266 365.25 328.971 369.08 345.954C375.288 344.581 381.568 351.743 379.396 357.719C406.014 355.501 430.854 371.567 449.712 390.483C477.357 418.212 497.226 453.614 506.497 491.656C508.116 498.301 517.57 500.113 523.419 496.567C529.268 493.022 532.274 486.317 534.94 480.018C552.491 438.542 570.042 397.065 587.593 355.589C581.718 319.49 586.945 321.501 589.696 304.62C597.218 285 595.781 267.272 598.823 248.597C599.652 243.512 603.209 236.802 607.905 238.922C610.28 239.994 611.118 242.889 611.625 245.445C614.472 259.81 615.382 274.558 614.322 289.164C620.398 278.771 626.473 268.378 632.549 257.984C635.874 252.296 643.219 245.927 647.831 250.632C650.364 253.217 649.698 257.458 648.653 260.923C645.328 271.944 639.908 282.33 632.768 291.361C642.394 294.644 653.544 299.629 655.229 309.659C655.928 313.82 654.749 318.054 653.353 322.035C648.497 335.874 640.826 348.719 630.945 359.556C633.212 358.188 634.695 362.259 634.244 364.869C623.405 427.577 596.994 487.534 558.04 537.857C546.545 552.708 530.951 568.025 512.253 566.273C500.549 565.177 490.659 557.497 481.502 550.126C471.642 542.19 461.782 534.253 451.922 526.317C474.874 531.444 487.656 560.076 511.004 562.903C529.987 565.201 545.922 549.302 557.395 534.004C594.832 484.089 620.4 425.333 631.412 363.918C616.441 366.43 600.858 365.204 586.465 360.381C572.183 404.66 554.198 447.743 532.757 489.034C529.051 496.171 522.459 504.466 514.847 501.871C511.44 500.709 509.138 497.582 507.219 494.537C488.033 464.108 483.575 423.531 455.592 400.925C466.87 470.869 449.089 541.994 428.962 609.922C444.37 556.991 453.756 502.309 456.881 447.269C457.598 434.633 457.956 421.719 454.38 409.578C450.804 397.437 442.64 386.013 430.79 381.568C423.072 431.766 377.865 469.107 366.425 518.59C357.175 558.602 342.959 597.464 324.207 634ZM370.677 496.585C387.876 463.888 410.424 433.956 424.424 399.767C427.607 391.993 430.232 382.754 425.905 375.555C424.343 372.956 422.014 370.922 419.725 368.934C416.104 365.79 412.134 362.492 407.355 362.104C401.013 361.588 395.513 366.331 391.433 371.214C381.539 383.053 375.15 397.363 369.075 411.546C354.542 445.471 341.032 479.998 332.535 515.913C324.039 551.828 320.651 589.317 326.494 625.758C333.893 592.339 358.772 564.022 362.182 529.964C362.744 524.355 362.706 518.661 363.927 513.157C365.222 507.316 367.891 501.88 370.677 496.585ZM404.725 187.997C402.396 183.507 399.49 179.212 395.516 176.082C386.664 169.112 374.2 169.093 363.125 171.165C356.046 172.489 349.101 174.531 342.431 177.249C340.69 177.958 338.841 178.73 336.991 178.394C335.141 178.057 333.477 176.063 334.235 174.342C334.381 174.011 334.607 173.704 334.646 173.344C334.754 172.337 333.474 171.833 332.471 171.689C317.229 169.491 300.999 172.061 288.186 180.603C275.372 189.145 266.502 204.039 266.976 219.431C267.083 222.885 269.68 225.711 272.287 227.98C276.274 231.449 280.667 234.451 285.349 236.905C287.45 238.006 290.333 238.879 291.939 237.133C295.125 233.67 300.418 233.401 305.123 233.502C321.475 233.852 337.916 235.738 354.126 233.56C364.002 232.232 373.62 229.414 383.458 227.828C386.471 227.342 389.582 226.976 392.552 227.68C395.522 228.383 398.358 230.359 399.304 233.261C403.134 228.933 406.579 224.263 409.583 219.326C410.485 217.844 411.36 216.304 411.694 214.602C411.99 213.092 411.844 211.532 411.643 210.006C410.636 202.342 408.283 194.858 404.725 187.997ZM380.199 295.517C385.97 292.986 389.213 286.849 391.396 280.937C396.599 266.848 398.272 251.47 396.219 236.592C396.013 235.096 395.737 233.529 394.783 232.359C393.272 230.505 390.571 230.217 388.181 230.315C382.561 230.544 377.093 232.092 371.622 233.398C360.102 236.148 348.301 237.857 336.458 237.897C324.754 237.936 313.07 236.349 301.375 236.803C299.047 236.894 296.586 237.112 294.696 238.475C291.701 240.636 291.174 244.822 291.055 248.514C290.599 262.548 292.255 276.649 295.951 290.196C296.173 291.01 296.423 291.859 297.015 292.46C297.653 293.108 298.579 293.36 299.452 293.615C313.582 297.753 325.804 309.604 340.492 308.581C351.387 307.823 360.547 300.009 371.212 297.654C374.226 296.989 377.373 296.756 380.199 295.517ZM259.41 527.355C258.533 540.089 265.738 551.815 272.667 562.534C279.682 573.385 286.696 584.237 293.71 595.088C283.365 560.659 278.485 524.826 275.166 489.03C271.7 451.653 269.98 413.31 280.2 377.191C281.822 371.46 283.765 365.754 286.903 360.691C277.495 360.446 267.486 361.167 259.811 366.614C254.822 370.155 251.281 375.41 248.658 380.937C240.552 398.017 240.532 417.95 244.115 436.513C247.699 455.076 254.651 472.79 260.098 490.894C261.681 496.155 263.151 501.556 262.959 507.046C262.718 513.925 259.882 520.489 259.41 527.355ZM305.106 299.154C300.257 297.292 294.375 295.772 292.447 290.949C291.541 288.684 291.762 286.151 291.501 283.726C291.24 281.301 290.223 278.641 287.955 277.745C282.489 275.585 277.246 272.862 272.336 269.633C274.772 283.958 281.259 297.572 290.85 308.488C295.653 313.955 301.222 318.77 305.478 324.673C309.735 330.576 312.629 338.003 311.062 345.11C310.562 347.374 313.816 348.36 316.134 348.305C331.535 347.941 346.934 347.511 362.331 347.015C364.94 346.93 366.479 343.883 366.418 341.273C366.357 338.664 365.306 336.141 365.341 333.531C365.391 329.695 367.743 326.308 370.137 323.31C377.227 314.429 385.509 306.57 392.88 297.919C400.251 289.269 406.818 279.578 409.621 268.565C404.743 276.792 394.452 281.034 390.636 289.805C388.47 294.783 383.232 297.712 378.045 299.313C372.857 300.913 367.359 301.563 362.408 303.79C359.869 304.932 357.528 306.466 355.042 307.718C346.309 312.116 335.785 312.814 326.547 309.607C319.027 306.997 312.536 302.008 305.106 299.154ZM613.504 320.912C618.854 320.594 625.318 322.676 628.862 318.655C629.673 317.735 630.209 316.468 629.915 315.276C629.514 313.654 627.808 312.762 626.254 312.149C616.33 308.229 605.224 307.367 594.814 309.708C591.189 310.523 589.07 313.87 588.276 317.5C587.482 321.13 587.675 325.06 588.276 328.726C589.804 338.04 591.332 347.353 592.86 356.666C592.929 357.086 593.003 357.52 593.239 357.874C593.593 358.405 594.236 358.651 594.841 358.857C602.361 361.419 610.362 362.562 618.298 362.207C621.454 362.066 624.867 361.567 627.082 359.314C637.923 348.291 645.849 334.425 649.845 319.49C647.669 321.436 644.875 322.952 641.964 322.727C639.053 322.502 636.224 320.025 636.414 317.111C630.833 321.412 624.26 325.963 617.36 324.535C612.085 323.443 606.262 325.78 603.205 330.216C601.342 329.726 602.059 326.843 603.415 325.474C606.072 322.793 609.737 321.136 613.504 320.912ZM293.071 403.812C289.417 404.381 285.781 405.062 282.174 405.876C279.638 406.449 276.619 407.614 276.29 410.193C275.636 415.336 275.281 420.517 275.227 425.7C302.81 419.194 332.097 420.069 359.242 428.209C362.126 421.452 365.011 414.694 367.895 407.937C343.607 401.359 317.934 399.944 293.071 403.812ZM394.975 363.278C390.611 360.968 385.528 360.04 380.629 360.659C379.662 360.781 378.576 361.049 378.11 361.905C376.25 365.323 372.184 366.801 368.422 367.797C349.494 372.81 329.508 372.697 310.107 370.053C306.501 369.561 302.845 368.965 299.568 367.38C296.291 365.795 293.394 363.069 292.422 359.561C289.839 359.522 288.288 362.344 287.37 364.758C284.595 372.059 282.196 379.504 280.187 387.052C311.642 379.927 344.884 380.848 375.896 389.705C378.855 386.092 381.052 381.856 382.301 377.355C382.884 375.254 384.496 373.622 386.048 372.09C389.024 369.153 392 366.215 394.975 363.278ZM343.6 469.707C346.64 462.985 349.221 456.056 351.321 448.983C327.104 444.972 302.303 444.501 277.951 447.593C276.918 447.724 275.772 447.925 275.148 448.758C274.599 449.491 274.627 450.491 274.68 451.405C274.939 455.94 275.199 460.476 275.458 465.011C275.528 466.229 276.109 467.876 277.305 467.63C299.159 463.124 322.071 463.842 343.6 469.707ZM645.68 261.564C646.374 259.843 647.04 258.033 646.889 256.184C646.738 254.335 645.533 252.44 643.71 252.097C642.573 251.883 641.401 252.295 640.416 252.903C638.003 254.392 636.491 256.947 635.073 259.403C628.655 270.523 622.238 281.642 615.82 292.761C614.988 294.202 612.583 293.756 611.671 292.364C610.758 290.972 610.88 289.171 611.009 287.512C612.088 273.604 611.278 259.552 608.61 245.861C608.444 245.011 608.258 244.132 607.747 243.433C606.265 241.407 602.806 242.111 601.314 244.129C599.822 246.148 599.735 248.844 599.715 251.355C599.567 270.478 599.747 290.28 592.022 307.774C599.869 304.728 608.702 304.289 616.812 306.54C617.971 306.862 619.172 307.241 620.354 307.017C621.536 306.794 622.659 305.717 622.453 304.532C621.679 300.091 624.867 296.054 627.669 292.523C635.118 283.14 641.205 272.677 645.68 261.564ZM376.613 353.127C376.079 350.935 374.114 348.922 371.867 349.123C348.939 351.176 325.881 351.76 302.879 350.87C301.517 350.817 300.083 350.774 298.875 351.405C298.023 351.85 297.356 352.604 296.904 353.453C295.068 356.899 296.932 361.392 300.061 363.727C303.19 366.061 307.221 366.743 311.094 367.232C328.004 369.367 345.237 369.142 362.023 366.193C365.648 365.556 369.366 364.744 372.366 362.613C375.366 360.482 377.485 356.702 376.613 353.127ZM335.739 493.523C335.872 493.065 335.999 492.545 335.758 492.133C335.5 491.694 334.936 491.564 334.434 491.479C316.208 488.387 297.553 489.906 279.129 491.433C278.608 491.476 278.015 491.559 277.722 491.992C277.494 492.33 277.527 492.773 277.568 493.179C278.102 498.409 278.636 503.64 279.17 508.871C279.272 509.875 279.697 511.177 280.706 511.126C296.726 510.308 312.824 511.017 328.71 513.242C329.719 513.384 330.327 512.18 330.611 511.201C332.32 505.308 334.03 499.416 335.739 493.523ZM325.292 540.585C325.371 539.833 325.416 538.975 324.895 538.427C324.497 538.007 323.879 537.899 323.305 537.819C310.834 536.082 298.162 537.315 285.631 538.55C285.005 538.612 284.28 538.735 283.978 539.287C283.771 539.666 283.836 540.13 283.908 540.556C284.748 545.567 285.589 550.578 286.43 555.59C286.551 556.311 286.932 557.236 287.655 557.129C299.608 555.347 312.328 554.823 323.26 559.974C323.938 553.511 324.615 547.048 325.292 540.585ZM275.156 267.694C279.671 270.795 284.628 273.253 289.83 274.968C287.565 264.522 287.122 253.684 288.525 243.088C288.703 241.748 287.194 240.883 285.948 240.358C278.665 237.288 272.054 232.631 266.71 226.807C267.262 237.862 268.457 248.884 270.287 259.8C270.561 261.437 270.868 263.119 271.754 264.523C272.588 265.843 273.869 266.81 275.156 267.694ZM395.518 278.918C400.368 274.976 404.617 270.328 408.376 265.335C410.405 262.642 412.316 259.804 413.44 256.625C414.57 253.428 414.863 250.002 414.997 246.614C415.349 237.748 414.672 228.841 412.985 220.129C409.09 225.42 405.196 230.711 401.301 236.002C400.704 236.814 400.092 237.656 399.862 238.638C399.677 239.424 399.752 240.246 399.818 241.051C400.858 253.793 399.388 266.734 395.518 278.918ZM320.277 602.489C321.13 602.661 321.52 601.47 321.541 600.6C321.665 595.401 321.788 590.201 321.912 585.002C321.923 584.534 321.93 584.045 321.728 583.623C321.354 582.843 320.415 582.545 319.578 582.328C314.845 581.097 310.044 579.858 305.154 579.917C301.092 579.966 297.07 580.913 293.01 580.813C292.549 580.802 291.949 580.878 291.853 581.328C291.819 581.484 291.863 581.645 291.907 581.799C293.699 588.019 296.058 594.075 298.945 599.868C299.324 600.628 299.776 601.443 300.566 601.751C301.124 601.968 301.747 601.887 302.341 601.813C308.304 601.067 314.387 601.296 320.277 602.489ZM417.696 212.071C416.767 213.507 415.945 215.076 415.793 216.779C415.699 217.824 415.862 218.873 416.025 219.909C416.651 223.902 417.278 227.896 417.904 231.889C417.941 232.121 417.983 232.367 418.138 232.543C418.501 232.958 419.175 232.738 419.666 232.488C421.649 231.481 423.655 230.459 425.329 228.995C426.671 227.821 427.765 226.392 428.796 224.936C430.949 221.894 432.926 218.5 433.066 214.775C433.206 211.05 430.92 207 427.254 206.328C423.371 205.615 419.84 208.757 417.696 212.071ZM248.988 219.979C247.5 221.282 246.961 223.353 246.714 225.316C246.487 227.113 246.448 228.985 247.072 230.686C247.932 233.032 249.976 234.791 252.237 235.854C254.499 236.918 256.99 237.374 259.449 237.819C260.663 238.04 261.876 238.26 263.09 238.48C263.391 238.534 263.747 238.573 263.959 238.353C264.136 238.171 264.136 237.886 264.124 237.633C263.924 233.138 263.723 228.643 263.522 224.148C263.437 222.238 262.072 220.556 260.389 219.649C258.706 218.742 256.747 218.498 254.837 218.45C252.773 218.397 250.54 218.618 248.988 219.979ZM639.118 296.898C638.225 295.922 636.907 295.475 635.64 295.096C634.298 294.694 632.848 294.326 631.517 294.765C630.006 295.262 629.006 296.675 628.208 298.052C627.002 300.134 626.001 302.335 625.226 304.613C624.951 305.42 624.702 306.268 624.816 307.112C624.931 307.957 625.507 308.796 626.344 308.953C629.763 309.594 632.749 312.17 633.885 315.458C635.473 312.13 637.061 308.803 638.649 305.475C639.306 304.099 639.971 302.697 640.197 301.189C640.422 299.68 640.148 298.022 639.118 296.898ZM651.018 303.866C649.392 302.337 646.686 302.444 644.806 303.648C642.926 304.851 641.755 306.909 640.998 309.008C640.136 311.4 639.717 313.951 639.768 316.493C639.78 317.1 639.824 317.727 640.104 318.266C640.779 319.565 642.561 319.856 643.981 319.497C647.084 318.714 649.151 315.831 650.685 313.023C651.475 311.576 652.21 310.057 652.416 308.421C652.621 306.785 652.219 304.995 651.018 303.866ZM323.789 628.413C323.026 624 322.263 619.588 321.499 615.176C321.411 614.662 321.292 614.098 320.873 613.787C320.599 613.583 320.244 613.529 319.905 613.485C315.972 612.974 311.976 612.948 308.037 613.409C312.687 618.994 317.984 624.04 323.789 628.413Z" fill="#00160A"/>
<path d="M97.9322 198.218C94.006 205.744 91.9691 214.095 92.0187 222.543C88.7581 216.12 84.8537 209.479 77.3257 207.532C71.0204 205.846 63.7183 209.31 62.8646 216.121C61.8434 224.304 69.2124 231.449 74.7398 236.492C81.2154 242.45 88.6996 247.234 96.3712 251.547C100.299 253.746 104.269 255.778 108.255 257.855C107.374 260.645 106.531 263.824 108.214 266.336C109.535 268.274 112.201 269.118 114.141 267.404C116.081 265.69 116.031 262.735 114.755 260.78C113.638 259.121 111.894 257.992 110.047 257.001C110.147 256.713 110.218 256.485 110.318 256.197C111.042 253.817 111.826 251.465 112.673 249.142C114.304 244.466 116.103 239.83 117.718 235.11C120.593 226.807 123.005 218.219 123.388 209.412C123.666 202.709 123.354 192.694 116.876 188.702C109.039 183.794 101.29 191.805 97.9322 198.218ZM113.795 262.087C114.401 263.328 114.482 264.961 113.441 266.046C111.686 267.844 109.485 266.024 108.973 264.195C108.461 262.366 108.965 260.368 109.562 258.488C111.271 259.378 112.983 260.418 113.795 262.087ZM121.901 204.763C122.104 209.124 121.789 213.471 120.986 217.745C119.444 226.469 116.372 234.794 113.3 243.118C111.708 247.477 110.086 251.897 108.724 256.324C107.662 255.803 106.634 255.371 105.679 254.862C101.91 252.958 98.2147 250.977 94.5325 248.891C87.013 244.573 79.7389 239.661 73.5188 233.56C69.9265 230.03 65.9426 225.987 64.4198 221.099C62.816 215.988 64.8123 210.625 70.1874 208.77C80.3489 205.273 87.7422 215.583 91.99 223.309C92.0194 223.954 92.0489 224.598 92.0783 225.243C92.1435 226.126 93.4469 225.903 93.4142 225.109C93.1511 216.638 94.6251 208.291 98.3184 200.546C100.15 196.705 102.523 192.516 106.384 190.304C110.665 187.839 115.789 188.392 118.664 192.486C121.114 195.979 121.718 200.596 121.901 204.763Z" fill="#FFB61D"/>
<path d="M620.044 94.0326C612.198 97.2745 605.27 102.362 599.878 108.866C601.508 101.85 602.787 94.2522 598.271 87.9221C594.525 82.5775 586.704 80.5374 581.672 85.2065C575.63 90.8184 576.683 101.028 577.675 108.444C578.806 117.171 581.464 125.647 584.568 133.882C586.164 138.091 587.899 142.2 589.618 146.353C587.149 147.924 584.46 149.817 584.135 152.823C583.901 155.157 585.4 157.517 587.988 157.451C590.576 157.385 592.437 155.089 592.716 152.772C592.928 150.783 592.317 148.797 591.539 146.851C591.801 146.694 592.001 146.565 592.263 146.409C594.347 145.051 596.46 143.754 598.602 142.518C602.857 139.984 607.215 137.59 611.486 135.012C619.026 130.499 626.393 125.471 632.349 118.971C636.87 114.015 643.068 106.142 640.672 98.9202C637.823 90.1229 626.738 91.2785 620.044 94.0326ZM591.141 153.156C590.807 154.496 589.82 155.8 588.325 155.961C585.825 156.21 585.309 153.402 586.092 151.671C586.876 149.941 588.546 148.734 590.212 147.678C590.949 149.458 591.591 151.355 591.141 153.156ZM634.198 114.453C631.55 117.924 628.514 121.052 625.152 123.81C618.363 129.502 610.659 133.904 602.955 138.307C598.933 140.622 594.85 142.966 590.96 145.481C590.482 144.4 589.972 143.408 589.568 142.404C587.904 138.523 586.347 134.63 584.867 130.665C581.883 122.524 579.467 114.086 578.624 105.414C578.142 100.4 577.688 94.7424 579.664 90.019C581.721 85.0731 586.697 82.2481 592.007 84.2817C602.039 88.1346 601.075 100.785 599.363 109.434C598.971 109.947 598.58 110.459 598.188 110.972C597.67 111.691 598.812 112.358 599.297 111.728C604.541 105.07 611.035 99.6231 618.843 96.0647C622.715 94.2995 627.225 92.6151 631.605 93.4027C636.469 94.2662 640.038 97.9841 639.609 102.968C639.241 107.218 636.735 111.144 634.198 114.453Z" fill="#FFB61D"/>
</svg>
